M48
;GenerationSoftware,Autodesk,EAGLE,9.3.1*%
;CreationDate,2019-04-18T19:21:29Z*%
FMAT,2
ICI,OFF
METRIC,TZ,000.000
T3C1.016
T2C1.020
%
G90
M71
T2
X59690Y20320
X52070Y45720
X70866Y27305
T3
X85090Y19050
X7620Y49530
X82550Y16510
X85090Y16510
X82550Y13970
X85090Y13970
X82550Y11430
X85090Y11430
X82550Y8890
X85090Y8890
X82550Y6350
X85090Y6350
X82550Y3810
X85090Y3810
X5080Y52070
X7620Y52070
X5080Y49530
X36830Y17780
X85090Y31750
X36830Y15240
X36830Y12700
X20320Y16510
X20320Y19050
X20320Y21590
X82550Y34290
X85090Y34290
X82550Y31750
X82550Y19050
X82550Y29210
X85090Y29210
X82550Y26670
X85090Y26670
X82550Y24130
X85090Y24130
X82550Y21590
X85090Y21590
X7620Y24130
X5080Y26670
X5080Y29210
X5080Y31750
X5080Y34290
X7620Y34290
X7620Y31750
X7620Y29210
X7620Y26670
X5080Y24130
X7620Y21590
X7620Y19050
X7620Y16510
X7620Y13970
X7620Y11430
X7620Y8890
X7620Y6350
X7620Y3810
X7620Y36830
X7620Y46990
X5080Y44450
X7620Y44450
X5080Y41910
X7620Y41910
X5080Y39370
X7620Y39370
X5080Y36830
X5080Y46990
X5080Y3810
X5080Y6350
X5080Y8890
X5080Y11430
X5080Y13970
X5080Y16510
X5080Y19050
X5080Y21590
M30