G04 EAGLE Gerber RS-274X export*
G75*
%MOMM*%
%FSLAX34Y34*%
%LPD*%
%INTop Copper*%
%IPPOS*%
%AMOC8*
5,1,8,0,0,1.08239X$1,22.5*%
G01*
%ADD10C,1.879600*%
%ADD11P,1.649562X8X112.500000*%
%ADD12C,1.524000*%
%ADD13C,1.530000*%

G36*
X882676Y4830D02*
X882676Y4830D01*
X882702Y4828D01*
X882849Y4850D01*
X882996Y4867D01*
X883021Y4875D01*
X883047Y4879D01*
X883185Y4934D01*
X883324Y4984D01*
X883346Y4998D01*
X883371Y5008D01*
X883492Y5093D01*
X883617Y5173D01*
X883635Y5192D01*
X883657Y5207D01*
X883756Y5317D01*
X883859Y5424D01*
X883873Y5446D01*
X883890Y5466D01*
X883962Y5596D01*
X884038Y5723D01*
X884046Y5748D01*
X884059Y5771D01*
X884099Y5914D01*
X884144Y6055D01*
X884146Y6081D01*
X884154Y6106D01*
X884173Y6350D01*
X884173Y552450D01*
X884170Y552476D01*
X884172Y552502D01*
X884150Y552649D01*
X884133Y552796D01*
X884125Y552821D01*
X884121Y552847D01*
X884066Y552985D01*
X884016Y553124D01*
X884002Y553146D01*
X883992Y553171D01*
X883907Y553292D01*
X883827Y553417D01*
X883808Y553435D01*
X883793Y553457D01*
X883683Y553556D01*
X883576Y553659D01*
X883554Y553673D01*
X883534Y553690D01*
X883404Y553762D01*
X883277Y553838D01*
X883252Y553846D01*
X883229Y553859D01*
X883086Y553899D01*
X882945Y553944D01*
X882919Y553946D01*
X882894Y553954D01*
X882650Y553973D01*
X6350Y553973D01*
X6324Y553970D01*
X6298Y553972D01*
X6151Y553950D01*
X6004Y553933D01*
X5979Y553925D01*
X5953Y553921D01*
X5815Y553866D01*
X5676Y553816D01*
X5654Y553802D01*
X5629Y553792D01*
X5508Y553707D01*
X5383Y553627D01*
X5365Y553608D01*
X5343Y553593D01*
X5244Y553483D01*
X5141Y553376D01*
X5127Y553354D01*
X5110Y553334D01*
X5038Y553204D01*
X4962Y553077D01*
X4954Y553052D01*
X4941Y553029D01*
X4901Y552886D01*
X4856Y552745D01*
X4854Y552719D01*
X4846Y552694D01*
X4827Y552450D01*
X4827Y6350D01*
X4830Y6324D01*
X4828Y6298D01*
X4850Y6151D01*
X4867Y6004D01*
X4875Y5979D01*
X4879Y5953D01*
X4934Y5815D01*
X4984Y5676D01*
X4998Y5654D01*
X5008Y5629D01*
X5093Y5508D01*
X5173Y5383D01*
X5192Y5365D01*
X5207Y5343D01*
X5317Y5244D01*
X5424Y5141D01*
X5446Y5127D01*
X5466Y5110D01*
X5596Y5038D01*
X5723Y4962D01*
X5748Y4954D01*
X5771Y4941D01*
X5914Y4901D01*
X6055Y4856D01*
X6081Y4854D01*
X6106Y4846D01*
X6350Y4827D01*
X882650Y4827D01*
X882676Y4830D01*
G37*
%LPC*%
G36*
X48122Y24637D02*
X48122Y24637D01*
X43174Y26687D01*
X39387Y30474D01*
X37337Y35422D01*
X37337Y40778D01*
X39387Y45726D01*
X43384Y49723D01*
X43400Y49743D01*
X43420Y49760D01*
X43508Y49880D01*
X43600Y49996D01*
X43612Y50020D01*
X43627Y50041D01*
X43686Y50177D01*
X43749Y50311D01*
X43755Y50337D01*
X43765Y50361D01*
X43791Y50507D01*
X43823Y50652D01*
X43822Y50678D01*
X43827Y50704D01*
X43819Y50852D01*
X43817Y51000D01*
X43810Y51026D01*
X43809Y51052D01*
X43768Y51194D01*
X43732Y51338D01*
X43720Y51361D01*
X43712Y51387D01*
X43640Y51516D01*
X43572Y51648D01*
X43555Y51668D01*
X43542Y51691D01*
X43384Y51877D01*
X39387Y55874D01*
X37337Y60822D01*
X37337Y66178D01*
X39387Y71126D01*
X43174Y74913D01*
X44964Y75655D01*
X45000Y75674D01*
X45038Y75688D01*
X45152Y75759D01*
X45269Y75824D01*
X45299Y75851D01*
X45333Y75873D01*
X45428Y75968D01*
X45527Y76058D01*
X45550Y76092D01*
X45579Y76120D01*
X45649Y76235D01*
X45725Y76345D01*
X45740Y76383D01*
X45761Y76417D01*
X45804Y76545D01*
X45853Y76669D01*
X45859Y76709D01*
X45872Y76748D01*
X45884Y76881D01*
X45904Y77014D01*
X45900Y77054D01*
X45904Y77095D01*
X45886Y77228D01*
X45875Y77361D01*
X45862Y77400D01*
X45857Y77440D01*
X45809Y77565D01*
X45768Y77693D01*
X45747Y77728D01*
X45732Y77766D01*
X45657Y77877D01*
X45588Y77991D01*
X45559Y78021D01*
X45537Y78054D01*
X45439Y78145D01*
X45345Y78241D01*
X45311Y78263D01*
X45281Y78291D01*
X45073Y78419D01*
X44543Y78689D01*
X43022Y79794D01*
X41694Y81122D01*
X40589Y82643D01*
X39736Y84317D01*
X39155Y86104D01*
X39115Y86361D01*
X49784Y86361D01*
X49810Y86364D01*
X49836Y86362D01*
X49983Y86384D01*
X50130Y86401D01*
X50155Y86409D01*
X50181Y86413D01*
X50318Y86468D01*
X50458Y86518D01*
X50480Y86532D01*
X50505Y86542D01*
X50626Y86627D01*
X50751Y86707D01*
X50769Y86726D01*
X50791Y86741D01*
X50890Y86851D01*
X50993Y86958D01*
X51007Y86980D01*
X51024Y87000D01*
X51096Y87130D01*
X51172Y87257D01*
X51180Y87282D01*
X51193Y87305D01*
X51233Y87448D01*
X51278Y87589D01*
X51280Y87615D01*
X51287Y87640D01*
X51307Y87884D01*
X51307Y89916D01*
X51304Y89942D01*
X51306Y89968D01*
X51284Y90115D01*
X51267Y90262D01*
X51258Y90287D01*
X51254Y90313D01*
X51200Y90451D01*
X51150Y90590D01*
X51135Y90612D01*
X51126Y90637D01*
X51041Y90758D01*
X50961Y90883D01*
X50942Y90901D01*
X50927Y90923D01*
X50817Y91022D01*
X50710Y91125D01*
X50687Y91139D01*
X50668Y91156D01*
X50538Y91228D01*
X50411Y91304D01*
X50386Y91312D01*
X50363Y91325D01*
X50220Y91365D01*
X50079Y91410D01*
X50053Y91412D01*
X50028Y91420D01*
X49784Y91439D01*
X39115Y91439D01*
X39155Y91696D01*
X39736Y93483D01*
X40589Y95157D01*
X41694Y96678D01*
X43022Y98006D01*
X44543Y99111D01*
X45073Y99381D01*
X45106Y99403D01*
X45144Y99420D01*
X45252Y99500D01*
X45363Y99574D01*
X45391Y99603D01*
X45424Y99628D01*
X45510Y99730D01*
X45602Y99827D01*
X45622Y99863D01*
X45649Y99894D01*
X45710Y100013D01*
X45777Y100129D01*
X45789Y100167D01*
X45808Y100204D01*
X45840Y100334D01*
X45879Y100462D01*
X45882Y100502D01*
X45892Y100542D01*
X45894Y100676D01*
X45903Y100809D01*
X45896Y100850D01*
X45897Y100890D01*
X45868Y101021D01*
X45847Y101153D01*
X45831Y101191D01*
X45822Y101231D01*
X45765Y101352D01*
X45714Y101476D01*
X45690Y101509D01*
X45673Y101546D01*
X45589Y101650D01*
X45511Y101759D01*
X45481Y101786D01*
X45455Y101818D01*
X45350Y101901D01*
X45250Y101989D01*
X45214Y102009D01*
X45182Y102034D01*
X44964Y102145D01*
X43174Y102887D01*
X39387Y106674D01*
X37337Y111622D01*
X37337Y116978D01*
X39387Y121926D01*
X43384Y125923D01*
X43400Y125943D01*
X43420Y125960D01*
X43508Y126080D01*
X43600Y126196D01*
X43612Y126220D01*
X43627Y126241D01*
X43686Y126377D01*
X43749Y126511D01*
X43755Y126537D01*
X43765Y126561D01*
X43791Y126707D01*
X43823Y126852D01*
X43822Y126878D01*
X43827Y126904D01*
X43819Y127052D01*
X43817Y127200D01*
X43810Y127226D01*
X43809Y127252D01*
X43768Y127394D01*
X43732Y127538D01*
X43720Y127561D01*
X43712Y127587D01*
X43640Y127716D01*
X43572Y127848D01*
X43555Y127868D01*
X43542Y127891D01*
X43384Y128077D01*
X39387Y132074D01*
X37337Y137022D01*
X37337Y142378D01*
X39387Y147326D01*
X43384Y151323D01*
X43400Y151343D01*
X43420Y151360D01*
X43508Y151480D01*
X43600Y151596D01*
X43612Y151620D01*
X43627Y151641D01*
X43686Y151777D01*
X43749Y151911D01*
X43755Y151937D01*
X43765Y151961D01*
X43791Y152107D01*
X43823Y152252D01*
X43822Y152278D01*
X43827Y152304D01*
X43819Y152452D01*
X43817Y152600D01*
X43810Y152626D01*
X43809Y152652D01*
X43768Y152794D01*
X43732Y152938D01*
X43720Y152961D01*
X43712Y152987D01*
X43640Y153116D01*
X43572Y153248D01*
X43555Y153268D01*
X43542Y153291D01*
X43384Y153477D01*
X39387Y157474D01*
X37337Y162422D01*
X37337Y167778D01*
X39387Y172726D01*
X43174Y176513D01*
X44964Y177255D01*
X45000Y177274D01*
X45038Y177288D01*
X45152Y177359D01*
X45269Y177424D01*
X45299Y177451D01*
X45333Y177473D01*
X45428Y177568D01*
X45527Y177658D01*
X45550Y177692D01*
X45579Y177720D01*
X45649Y177835D01*
X45725Y177945D01*
X45740Y177983D01*
X45761Y178017D01*
X45804Y178145D01*
X45853Y178269D01*
X45859Y178309D01*
X45872Y178348D01*
X45884Y178481D01*
X45904Y178614D01*
X45900Y178654D01*
X45904Y178695D01*
X45886Y178828D01*
X45875Y178961D01*
X45862Y179000D01*
X45857Y179040D01*
X45809Y179165D01*
X45768Y179293D01*
X45747Y179328D01*
X45732Y179366D01*
X45657Y179477D01*
X45588Y179591D01*
X45559Y179621D01*
X45537Y179654D01*
X45439Y179745D01*
X45345Y179841D01*
X45311Y179863D01*
X45281Y179891D01*
X45073Y180019D01*
X44543Y180289D01*
X43022Y181394D01*
X41694Y182722D01*
X40589Y184243D01*
X39736Y185917D01*
X39155Y187704D01*
X39115Y187961D01*
X49784Y187961D01*
X49810Y187964D01*
X49836Y187962D01*
X49983Y187984D01*
X50130Y188001D01*
X50155Y188009D01*
X50181Y188013D01*
X50318Y188068D01*
X50458Y188118D01*
X50480Y188132D01*
X50505Y188142D01*
X50626Y188227D01*
X50751Y188307D01*
X50769Y188326D01*
X50791Y188341D01*
X50890Y188451D01*
X50993Y188558D01*
X51007Y188580D01*
X51024Y188600D01*
X51096Y188730D01*
X51172Y188857D01*
X51180Y188882D01*
X51193Y188905D01*
X51233Y189048D01*
X51278Y189189D01*
X51280Y189215D01*
X51287Y189240D01*
X51307Y189484D01*
X51307Y191516D01*
X51304Y191542D01*
X51306Y191568D01*
X51284Y191715D01*
X51267Y191862D01*
X51258Y191887D01*
X51254Y191913D01*
X51200Y192051D01*
X51150Y192190D01*
X51135Y192212D01*
X51126Y192237D01*
X51041Y192358D01*
X50961Y192483D01*
X50942Y192501D01*
X50927Y192523D01*
X50817Y192622D01*
X50710Y192725D01*
X50687Y192739D01*
X50668Y192756D01*
X50538Y192828D01*
X50411Y192904D01*
X50386Y192912D01*
X50363Y192925D01*
X50220Y192965D01*
X50079Y193010D01*
X50053Y193012D01*
X50028Y193020D01*
X49784Y193039D01*
X39115Y193039D01*
X39155Y193296D01*
X39736Y195083D01*
X40589Y196757D01*
X41694Y198278D01*
X43022Y199606D01*
X44543Y200711D01*
X45073Y200981D01*
X45106Y201003D01*
X45144Y201020D01*
X45251Y201100D01*
X45363Y201174D01*
X45391Y201203D01*
X45424Y201228D01*
X45510Y201330D01*
X45602Y201427D01*
X45622Y201462D01*
X45649Y201494D01*
X45710Y201613D01*
X45777Y201729D01*
X45789Y201768D01*
X45807Y201804D01*
X45840Y201934D01*
X45879Y202062D01*
X45882Y202102D01*
X45892Y202142D01*
X45894Y202276D01*
X45903Y202410D01*
X45896Y202450D01*
X45897Y202490D01*
X45868Y202621D01*
X45847Y202754D01*
X45831Y202791D01*
X45822Y202831D01*
X45765Y202952D01*
X45714Y203076D01*
X45690Y203109D01*
X45673Y203146D01*
X45589Y203250D01*
X45511Y203359D01*
X45481Y203386D01*
X45455Y203418D01*
X45350Y203501D01*
X45250Y203590D01*
X45214Y203609D01*
X45182Y203634D01*
X44964Y203745D01*
X43174Y204487D01*
X39387Y208274D01*
X37337Y213222D01*
X37337Y218578D01*
X39387Y223526D01*
X43384Y227523D01*
X43400Y227543D01*
X43420Y227560D01*
X43508Y227680D01*
X43600Y227796D01*
X43612Y227820D01*
X43627Y227841D01*
X43686Y227977D01*
X43749Y228111D01*
X43755Y228137D01*
X43765Y228161D01*
X43791Y228307D01*
X43823Y228452D01*
X43822Y228478D01*
X43827Y228504D01*
X43819Y228652D01*
X43817Y228800D01*
X43810Y228826D01*
X43809Y228852D01*
X43768Y228994D01*
X43732Y229138D01*
X43720Y229161D01*
X43712Y229187D01*
X43640Y229316D01*
X43572Y229448D01*
X43555Y229468D01*
X43542Y229491D01*
X43384Y229677D01*
X39387Y233674D01*
X37337Y238622D01*
X37337Y243978D01*
X39387Y248926D01*
X43174Y252713D01*
X44964Y253455D01*
X44999Y253474D01*
X45038Y253488D01*
X45152Y253559D01*
X45269Y253624D01*
X45299Y253651D01*
X45333Y253673D01*
X45427Y253768D01*
X45527Y253858D01*
X45550Y253892D01*
X45579Y253920D01*
X45649Y254034D01*
X45725Y254145D01*
X45740Y254183D01*
X45761Y254217D01*
X45804Y254345D01*
X45853Y254469D01*
X45859Y254509D01*
X45872Y254548D01*
X45884Y254681D01*
X45904Y254814D01*
X45900Y254854D01*
X45904Y254895D01*
X45886Y255027D01*
X45875Y255161D01*
X45862Y255200D01*
X45857Y255240D01*
X45809Y255365D01*
X45768Y255493D01*
X45747Y255528D01*
X45732Y255566D01*
X45657Y255676D01*
X45588Y255791D01*
X45559Y255821D01*
X45537Y255854D01*
X45439Y255945D01*
X45345Y256041D01*
X45311Y256063D01*
X45281Y256091D01*
X45073Y256219D01*
X44543Y256489D01*
X43022Y257594D01*
X41694Y258922D01*
X40589Y260443D01*
X39736Y262117D01*
X39155Y263904D01*
X39115Y264161D01*
X49784Y264161D01*
X49810Y264164D01*
X49836Y264162D01*
X49983Y264184D01*
X50130Y264201D01*
X50155Y264209D01*
X50181Y264213D01*
X50318Y264268D01*
X50458Y264318D01*
X50480Y264332D01*
X50505Y264342D01*
X50626Y264427D01*
X50751Y264507D01*
X50769Y264526D01*
X50791Y264541D01*
X50890Y264651D01*
X50993Y264758D01*
X51007Y264780D01*
X51024Y264800D01*
X51096Y264930D01*
X51172Y265057D01*
X51180Y265082D01*
X51193Y265105D01*
X51233Y265248D01*
X51278Y265389D01*
X51280Y265415D01*
X51287Y265440D01*
X51307Y265684D01*
X51307Y267716D01*
X51304Y267742D01*
X51306Y267768D01*
X51284Y267915D01*
X51267Y268062D01*
X51258Y268087D01*
X51254Y268113D01*
X51200Y268251D01*
X51150Y268390D01*
X51135Y268412D01*
X51126Y268437D01*
X51041Y268558D01*
X50961Y268683D01*
X50942Y268701D01*
X50927Y268723D01*
X50817Y268822D01*
X50710Y268925D01*
X50687Y268939D01*
X50668Y268956D01*
X50538Y269028D01*
X50411Y269104D01*
X50386Y269112D01*
X50363Y269125D01*
X50220Y269165D01*
X50079Y269210D01*
X50053Y269212D01*
X50028Y269220D01*
X49784Y269239D01*
X39115Y269239D01*
X39155Y269496D01*
X39736Y271283D01*
X40589Y272957D01*
X41694Y274478D01*
X43022Y275806D01*
X44543Y276911D01*
X45073Y277181D01*
X45106Y277203D01*
X45144Y277220D01*
X45251Y277300D01*
X45363Y277374D01*
X45391Y277403D01*
X45424Y277428D01*
X45510Y277530D01*
X45602Y277627D01*
X45622Y277662D01*
X45649Y277694D01*
X45710Y277813D01*
X45777Y277929D01*
X45789Y277968D01*
X45807Y278004D01*
X45840Y278134D01*
X45879Y278262D01*
X45882Y278302D01*
X45892Y278342D01*
X45894Y278476D01*
X45903Y278610D01*
X45896Y278650D01*
X45897Y278690D01*
X45868Y278821D01*
X45847Y278954D01*
X45831Y278991D01*
X45822Y279031D01*
X45765Y279152D01*
X45714Y279276D01*
X45690Y279309D01*
X45673Y279346D01*
X45589Y279450D01*
X45511Y279559D01*
X45481Y279586D01*
X45455Y279618D01*
X45350Y279701D01*
X45250Y279790D01*
X45214Y279809D01*
X45182Y279834D01*
X44964Y279945D01*
X43174Y280687D01*
X39387Y284474D01*
X37337Y289422D01*
X37337Y294778D01*
X39387Y299726D01*
X43384Y303723D01*
X43400Y303743D01*
X43420Y303760D01*
X43508Y303880D01*
X43600Y303996D01*
X43612Y304020D01*
X43627Y304041D01*
X43686Y304177D01*
X43749Y304311D01*
X43755Y304337D01*
X43765Y304361D01*
X43791Y304507D01*
X43823Y304652D01*
X43822Y304678D01*
X43827Y304704D01*
X43819Y304852D01*
X43817Y305000D01*
X43810Y305026D01*
X43809Y305052D01*
X43768Y305194D01*
X43732Y305338D01*
X43720Y305361D01*
X43712Y305387D01*
X43640Y305516D01*
X43572Y305648D01*
X43555Y305668D01*
X43542Y305691D01*
X43384Y305877D01*
X39387Y309874D01*
X37337Y314822D01*
X37337Y320178D01*
X39387Y325126D01*
X43384Y329123D01*
X43400Y329143D01*
X43420Y329160D01*
X43508Y329280D01*
X43600Y329396D01*
X43612Y329420D01*
X43627Y329441D01*
X43686Y329577D01*
X43749Y329711D01*
X43755Y329737D01*
X43765Y329761D01*
X43791Y329907D01*
X43823Y330052D01*
X43822Y330078D01*
X43827Y330104D01*
X43819Y330252D01*
X43817Y330400D01*
X43810Y330426D01*
X43809Y330452D01*
X43768Y330594D01*
X43732Y330738D01*
X43720Y330761D01*
X43712Y330787D01*
X43640Y330916D01*
X43572Y331048D01*
X43555Y331068D01*
X43542Y331091D01*
X43384Y331277D01*
X39387Y335274D01*
X37337Y340222D01*
X37337Y345578D01*
X39387Y350526D01*
X43384Y354523D01*
X43400Y354543D01*
X43420Y354560D01*
X43508Y354680D01*
X43600Y354796D01*
X43612Y354820D01*
X43627Y354841D01*
X43686Y354977D01*
X43749Y355111D01*
X43755Y355137D01*
X43765Y355161D01*
X43791Y355307D01*
X43823Y355452D01*
X43822Y355478D01*
X43827Y355504D01*
X43819Y355652D01*
X43817Y355800D01*
X43810Y355826D01*
X43809Y355852D01*
X43768Y355994D01*
X43732Y356138D01*
X43720Y356161D01*
X43712Y356187D01*
X43640Y356316D01*
X43572Y356448D01*
X43555Y356468D01*
X43542Y356491D01*
X43384Y356677D01*
X39387Y360674D01*
X37337Y365622D01*
X37337Y370978D01*
X39387Y375926D01*
X43174Y379713D01*
X44964Y380455D01*
X45000Y380474D01*
X45038Y380488D01*
X45152Y380559D01*
X45269Y380624D01*
X45299Y380651D01*
X45333Y380673D01*
X45428Y380768D01*
X45527Y380858D01*
X45550Y380892D01*
X45579Y380920D01*
X45649Y381035D01*
X45725Y381145D01*
X45740Y381183D01*
X45761Y381217D01*
X45804Y381345D01*
X45853Y381469D01*
X45859Y381509D01*
X45872Y381548D01*
X45884Y381681D01*
X45904Y381814D01*
X45900Y381854D01*
X45904Y381895D01*
X45886Y382028D01*
X45875Y382161D01*
X45862Y382200D01*
X45857Y382240D01*
X45809Y382365D01*
X45768Y382493D01*
X45747Y382528D01*
X45732Y382566D01*
X45657Y382677D01*
X45588Y382791D01*
X45559Y382821D01*
X45537Y382854D01*
X45439Y382945D01*
X45345Y383041D01*
X45311Y383063D01*
X45281Y383091D01*
X45073Y383219D01*
X44543Y383489D01*
X43022Y384594D01*
X41694Y385922D01*
X40589Y387443D01*
X39736Y389117D01*
X39155Y390904D01*
X39115Y391161D01*
X49784Y391161D01*
X49810Y391164D01*
X49836Y391162D01*
X49983Y391184D01*
X50130Y391201D01*
X50155Y391209D01*
X50181Y391213D01*
X50318Y391268D01*
X50458Y391318D01*
X50480Y391332D01*
X50505Y391342D01*
X50626Y391427D01*
X50751Y391507D01*
X50769Y391526D01*
X50791Y391541D01*
X50890Y391651D01*
X50993Y391758D01*
X51007Y391780D01*
X51024Y391800D01*
X51096Y391930D01*
X51172Y392057D01*
X51180Y392082D01*
X51193Y392105D01*
X51233Y392248D01*
X51278Y392389D01*
X51280Y392415D01*
X51287Y392440D01*
X51307Y392684D01*
X51307Y394716D01*
X51304Y394742D01*
X51306Y394768D01*
X51284Y394915D01*
X51267Y395062D01*
X51258Y395087D01*
X51254Y395113D01*
X51200Y395251D01*
X51150Y395390D01*
X51135Y395412D01*
X51126Y395437D01*
X51041Y395558D01*
X50961Y395683D01*
X50942Y395701D01*
X50927Y395723D01*
X50817Y395822D01*
X50710Y395925D01*
X50687Y395939D01*
X50668Y395956D01*
X50538Y396028D01*
X50411Y396104D01*
X50386Y396112D01*
X50363Y396125D01*
X50220Y396165D01*
X50079Y396210D01*
X50053Y396212D01*
X50028Y396220D01*
X49784Y396239D01*
X39115Y396239D01*
X39155Y396496D01*
X39736Y398283D01*
X40589Y399957D01*
X41694Y401478D01*
X43022Y402806D01*
X44543Y403911D01*
X45073Y404181D01*
X45106Y404203D01*
X45144Y404220D01*
X45252Y404300D01*
X45363Y404374D01*
X45391Y404403D01*
X45424Y404428D01*
X45510Y404530D01*
X45602Y404627D01*
X45622Y404663D01*
X45649Y404694D01*
X45710Y404813D01*
X45777Y404929D01*
X45789Y404967D01*
X45808Y405004D01*
X45840Y405134D01*
X45879Y405262D01*
X45882Y405302D01*
X45892Y405342D01*
X45894Y405476D01*
X45903Y405609D01*
X45896Y405650D01*
X45897Y405690D01*
X45868Y405821D01*
X45847Y405953D01*
X45831Y405991D01*
X45822Y406031D01*
X45765Y406152D01*
X45714Y406276D01*
X45690Y406309D01*
X45673Y406346D01*
X45589Y406450D01*
X45511Y406559D01*
X45481Y406586D01*
X45455Y406618D01*
X45350Y406701D01*
X45250Y406789D01*
X45214Y406809D01*
X45182Y406834D01*
X44964Y406945D01*
X43174Y407687D01*
X39387Y411474D01*
X37337Y416422D01*
X37337Y421778D01*
X39387Y426726D01*
X43174Y430513D01*
X44964Y431255D01*
X45000Y431274D01*
X45038Y431288D01*
X45152Y431359D01*
X45269Y431424D01*
X45299Y431451D01*
X45333Y431473D01*
X45428Y431568D01*
X45527Y431658D01*
X45550Y431692D01*
X45579Y431720D01*
X45649Y431835D01*
X45725Y431945D01*
X45740Y431983D01*
X45761Y432017D01*
X45804Y432145D01*
X45853Y432269D01*
X45859Y432309D01*
X45872Y432348D01*
X45884Y432481D01*
X45904Y432614D01*
X45900Y432654D01*
X45904Y432695D01*
X45886Y432828D01*
X45875Y432961D01*
X45862Y433000D01*
X45857Y433040D01*
X45809Y433165D01*
X45768Y433293D01*
X45747Y433328D01*
X45732Y433366D01*
X45657Y433477D01*
X45588Y433591D01*
X45559Y433621D01*
X45537Y433654D01*
X45439Y433745D01*
X45345Y433841D01*
X45311Y433863D01*
X45281Y433891D01*
X45073Y434019D01*
X44543Y434289D01*
X43022Y435394D01*
X41694Y436722D01*
X40589Y438243D01*
X39736Y439917D01*
X39155Y441704D01*
X39115Y441961D01*
X49784Y441961D01*
X49810Y441964D01*
X49836Y441962D01*
X49983Y441984D01*
X50130Y442001D01*
X50155Y442009D01*
X50181Y442013D01*
X50318Y442068D01*
X50458Y442118D01*
X50480Y442132D01*
X50505Y442142D01*
X50626Y442227D01*
X50751Y442307D01*
X50769Y442326D01*
X50791Y442341D01*
X50890Y442451D01*
X50993Y442558D01*
X51007Y442580D01*
X51024Y442600D01*
X51096Y442730D01*
X51172Y442857D01*
X51180Y442882D01*
X51193Y442905D01*
X51233Y443048D01*
X51278Y443189D01*
X51280Y443215D01*
X51287Y443240D01*
X51307Y443484D01*
X51307Y445516D01*
X51304Y445542D01*
X51306Y445568D01*
X51284Y445715D01*
X51267Y445862D01*
X51258Y445887D01*
X51254Y445913D01*
X51200Y446051D01*
X51150Y446190D01*
X51135Y446212D01*
X51126Y446237D01*
X51041Y446358D01*
X50961Y446483D01*
X50942Y446501D01*
X50927Y446523D01*
X50817Y446622D01*
X50710Y446725D01*
X50687Y446739D01*
X50668Y446756D01*
X50538Y446828D01*
X50411Y446904D01*
X50386Y446912D01*
X50363Y446925D01*
X50220Y446965D01*
X50079Y447010D01*
X50053Y447012D01*
X50028Y447020D01*
X49784Y447039D01*
X39115Y447039D01*
X39155Y447296D01*
X39736Y449083D01*
X40589Y450757D01*
X41694Y452278D01*
X43022Y453606D01*
X44543Y454711D01*
X45073Y454981D01*
X45106Y455003D01*
X45144Y455020D01*
X45251Y455100D01*
X45363Y455174D01*
X45391Y455203D01*
X45424Y455228D01*
X45510Y455330D01*
X45602Y455427D01*
X45622Y455462D01*
X45649Y455494D01*
X45710Y455613D01*
X45777Y455729D01*
X45789Y455768D01*
X45807Y455804D01*
X45840Y455934D01*
X45879Y456062D01*
X45882Y456102D01*
X45892Y456142D01*
X45894Y456276D01*
X45903Y456410D01*
X45896Y456450D01*
X45897Y456490D01*
X45868Y456621D01*
X45847Y456754D01*
X45831Y456791D01*
X45822Y456831D01*
X45765Y456952D01*
X45714Y457076D01*
X45690Y457109D01*
X45673Y457146D01*
X45589Y457250D01*
X45511Y457359D01*
X45481Y457386D01*
X45455Y457418D01*
X45350Y457501D01*
X45250Y457590D01*
X45214Y457609D01*
X45182Y457634D01*
X44964Y457745D01*
X43174Y458487D01*
X39387Y462274D01*
X37337Y467222D01*
X37337Y472578D01*
X39387Y477526D01*
X43384Y481523D01*
X43400Y481543D01*
X43420Y481560D01*
X43508Y481680D01*
X43600Y481796D01*
X43612Y481820D01*
X43627Y481841D01*
X43686Y481977D01*
X43749Y482111D01*
X43755Y482137D01*
X43765Y482161D01*
X43791Y482307D01*
X43823Y482452D01*
X43822Y482478D01*
X43827Y482504D01*
X43819Y482652D01*
X43817Y482800D01*
X43810Y482826D01*
X43809Y482852D01*
X43768Y482994D01*
X43732Y483138D01*
X43720Y483161D01*
X43712Y483187D01*
X43640Y483316D01*
X43572Y483448D01*
X43555Y483468D01*
X43542Y483491D01*
X43384Y483677D01*
X39387Y487674D01*
X37337Y492622D01*
X37337Y497978D01*
X39387Y502926D01*
X43384Y506923D01*
X43400Y506943D01*
X43420Y506960D01*
X43508Y507080D01*
X43600Y507196D01*
X43612Y507220D01*
X43627Y507241D01*
X43686Y507377D01*
X43749Y507511D01*
X43755Y507537D01*
X43765Y507561D01*
X43791Y507707D01*
X43823Y507852D01*
X43822Y507878D01*
X43827Y507904D01*
X43819Y508052D01*
X43817Y508200D01*
X43810Y508226D01*
X43809Y508252D01*
X43768Y508394D01*
X43732Y508538D01*
X43720Y508561D01*
X43712Y508587D01*
X43640Y508716D01*
X43572Y508848D01*
X43555Y508868D01*
X43542Y508891D01*
X43384Y509077D01*
X39387Y513074D01*
X37337Y518022D01*
X37337Y523378D01*
X39387Y528326D01*
X43174Y532113D01*
X48122Y534163D01*
X53478Y534163D01*
X58426Y532113D01*
X62213Y528326D01*
X62955Y526536D01*
X62974Y526500D01*
X62988Y526462D01*
X63059Y526348D01*
X63124Y526231D01*
X63151Y526201D01*
X63173Y526167D01*
X63268Y526072D01*
X63358Y525973D01*
X63392Y525950D01*
X63420Y525921D01*
X63535Y525851D01*
X63645Y525775D01*
X63683Y525760D01*
X63717Y525739D01*
X63845Y525696D01*
X63969Y525647D01*
X64009Y525641D01*
X64048Y525628D01*
X64181Y525616D01*
X64314Y525596D01*
X64354Y525600D01*
X64395Y525596D01*
X64528Y525614D01*
X64661Y525625D01*
X64700Y525638D01*
X64740Y525643D01*
X64865Y525691D01*
X64993Y525732D01*
X65028Y525753D01*
X65066Y525768D01*
X65177Y525843D01*
X65291Y525912D01*
X65321Y525941D01*
X65354Y525963D01*
X65445Y526061D01*
X65541Y526155D01*
X65563Y526189D01*
X65591Y526219D01*
X65719Y526427D01*
X65989Y526957D01*
X67094Y528478D01*
X68422Y529806D01*
X69943Y530911D01*
X71617Y531764D01*
X73404Y532345D01*
X73661Y532385D01*
X73661Y521716D01*
X73664Y521690D01*
X73662Y521664D01*
X73684Y521517D01*
X73701Y521370D01*
X73709Y521345D01*
X73713Y521319D01*
X73768Y521182D01*
X73818Y521042D01*
X73832Y521020D01*
X73842Y520995D01*
X73927Y520874D01*
X74007Y520749D01*
X74026Y520731D01*
X74041Y520709D01*
X74151Y520610D01*
X74258Y520507D01*
X74280Y520493D01*
X74300Y520476D01*
X74430Y520404D01*
X74557Y520328D01*
X74582Y520320D01*
X74605Y520307D01*
X74748Y520267D01*
X74889Y520222D01*
X74915Y520220D01*
X74940Y520213D01*
X75184Y520193D01*
X75693Y520193D01*
X75693Y519684D01*
X75696Y519658D01*
X75694Y519633D01*
X75694Y519632D01*
X75716Y519485D01*
X75733Y519338D01*
X75742Y519313D01*
X75746Y519287D01*
X75800Y519149D01*
X75850Y519010D01*
X75865Y518988D01*
X75874Y518963D01*
X75959Y518842D01*
X76039Y518717D01*
X76058Y518699D01*
X76073Y518677D01*
X76183Y518578D01*
X76290Y518475D01*
X76313Y518461D01*
X76332Y518444D01*
X76462Y518372D01*
X76589Y518296D01*
X76614Y518288D01*
X76637Y518275D01*
X76780Y518235D01*
X76921Y518190D01*
X76947Y518187D01*
X76972Y518180D01*
X77216Y518161D01*
X87885Y518161D01*
X87845Y517904D01*
X87264Y516117D01*
X86411Y514443D01*
X85306Y512922D01*
X83978Y511594D01*
X82457Y510489D01*
X81927Y510219D01*
X81894Y510197D01*
X81856Y510180D01*
X81749Y510100D01*
X81637Y510026D01*
X81609Y509997D01*
X81576Y509972D01*
X81490Y509870D01*
X81398Y509773D01*
X81378Y509738D01*
X81351Y509706D01*
X81290Y509587D01*
X81223Y509471D01*
X81211Y509432D01*
X81193Y509396D01*
X81160Y509266D01*
X81121Y509138D01*
X81118Y509098D01*
X81108Y509058D01*
X81106Y508924D01*
X81097Y508790D01*
X81104Y508750D01*
X81103Y508710D01*
X81132Y508579D01*
X81153Y508446D01*
X81169Y508409D01*
X81178Y508369D01*
X81235Y508248D01*
X81286Y508124D01*
X81310Y508091D01*
X81327Y508054D01*
X81411Y507950D01*
X81489Y507841D01*
X81519Y507814D01*
X81545Y507782D01*
X81650Y507699D01*
X81750Y507610D01*
X81786Y507591D01*
X81818Y507566D01*
X82036Y507455D01*
X83826Y506713D01*
X87613Y502926D01*
X89663Y497978D01*
X89663Y492622D01*
X87613Y487674D01*
X83616Y483677D01*
X83600Y483657D01*
X83580Y483640D01*
X83492Y483520D01*
X83400Y483404D01*
X83388Y483380D01*
X83373Y483359D01*
X83314Y483223D01*
X83251Y483089D01*
X83245Y483063D01*
X83235Y483039D01*
X83209Y482893D01*
X83177Y482748D01*
X83178Y482722D01*
X83173Y482696D01*
X83181Y482548D01*
X83183Y482400D01*
X83190Y482374D01*
X83191Y482348D01*
X83232Y482206D01*
X83268Y482062D01*
X83280Y482039D01*
X83288Y482013D01*
X83360Y481884D01*
X83428Y481752D01*
X83445Y481732D01*
X83458Y481709D01*
X83616Y481523D01*
X87613Y477526D01*
X89663Y472578D01*
X89663Y467222D01*
X87613Y462274D01*
X83616Y458277D01*
X83600Y458257D01*
X83580Y458240D01*
X83532Y458175D01*
X83516Y458158D01*
X83500Y458131D01*
X83492Y458120D01*
X83400Y458004D01*
X83388Y457980D01*
X83373Y457959D01*
X83314Y457823D01*
X83251Y457689D01*
X83245Y457663D01*
X83235Y457639D01*
X83209Y457493D01*
X83177Y457348D01*
X83178Y457322D01*
X83173Y457296D01*
X83181Y457148D01*
X83183Y457000D01*
X83190Y456974D01*
X83191Y456948D01*
X83232Y456806D01*
X83268Y456662D01*
X83280Y456639D01*
X83288Y456613D01*
X83360Y456484D01*
X83428Y456352D01*
X83445Y456332D01*
X83458Y456309D01*
X83616Y456123D01*
X87613Y452126D01*
X89663Y447178D01*
X89663Y441822D01*
X87613Y436874D01*
X83616Y432877D01*
X83600Y432857D01*
X83580Y432840D01*
X83492Y432720D01*
X83400Y432604D01*
X83388Y432580D01*
X83373Y432559D01*
X83314Y432423D01*
X83251Y432289D01*
X83245Y432263D01*
X83235Y432239D01*
X83209Y432093D01*
X83177Y431948D01*
X83178Y431922D01*
X83173Y431896D01*
X83181Y431748D01*
X83183Y431600D01*
X83190Y431574D01*
X83191Y431548D01*
X83232Y431406D01*
X83268Y431262D01*
X83280Y431239D01*
X83288Y431213D01*
X83360Y431084D01*
X83428Y430952D01*
X83445Y430932D01*
X83458Y430909D01*
X83616Y430723D01*
X87613Y426726D01*
X89663Y421778D01*
X89663Y416422D01*
X87613Y411474D01*
X83616Y407477D01*
X83600Y407457D01*
X83580Y407440D01*
X83492Y407320D01*
X83400Y407204D01*
X83388Y407180D01*
X83373Y407159D01*
X83314Y407023D01*
X83251Y406889D01*
X83245Y406863D01*
X83235Y406839D01*
X83209Y406693D01*
X83177Y406548D01*
X83178Y406522D01*
X83173Y406496D01*
X83181Y406348D01*
X83183Y406200D01*
X83190Y406174D01*
X83191Y406148D01*
X83232Y406006D01*
X83268Y405862D01*
X83280Y405839D01*
X83288Y405813D01*
X83360Y405684D01*
X83428Y405552D01*
X83445Y405532D01*
X83458Y405509D01*
X83616Y405323D01*
X87613Y401326D01*
X89663Y396378D01*
X89663Y391022D01*
X87613Y386074D01*
X83616Y382077D01*
X83600Y382057D01*
X83580Y382040D01*
X83492Y381920D01*
X83400Y381804D01*
X83388Y381780D01*
X83373Y381759D01*
X83314Y381623D01*
X83251Y381489D01*
X83245Y381463D01*
X83235Y381439D01*
X83209Y381293D01*
X83177Y381148D01*
X83178Y381122D01*
X83173Y381096D01*
X83181Y380948D01*
X83183Y380800D01*
X83190Y380774D01*
X83191Y380748D01*
X83232Y380606D01*
X83268Y380462D01*
X83280Y380439D01*
X83288Y380413D01*
X83360Y380284D01*
X83428Y380152D01*
X83445Y380132D01*
X83458Y380109D01*
X83616Y379923D01*
X87613Y375926D01*
X89663Y370978D01*
X89663Y365622D01*
X87613Y360674D01*
X83826Y356887D01*
X82036Y356145D01*
X82000Y356126D01*
X81962Y356112D01*
X81848Y356041D01*
X81731Y355976D01*
X81701Y355949D01*
X81667Y355927D01*
X81572Y355832D01*
X81473Y355742D01*
X81450Y355708D01*
X81421Y355680D01*
X81351Y355565D01*
X81275Y355455D01*
X81260Y355417D01*
X81239Y355383D01*
X81196Y355255D01*
X81147Y355131D01*
X81141Y355091D01*
X81128Y355052D01*
X81116Y354919D01*
X81096Y354786D01*
X81100Y354746D01*
X81096Y354705D01*
X81114Y354572D01*
X81125Y354439D01*
X81138Y354400D01*
X81143Y354360D01*
X81191Y354235D01*
X81232Y354107D01*
X81253Y354072D01*
X81268Y354034D01*
X81343Y353923D01*
X81412Y353809D01*
X81441Y353779D01*
X81463Y353746D01*
X81561Y353655D01*
X81655Y353559D01*
X81689Y353537D01*
X81719Y353509D01*
X81927Y353381D01*
X82457Y353111D01*
X83978Y352006D01*
X85306Y350678D01*
X86411Y349157D01*
X87264Y347483D01*
X87845Y345696D01*
X87885Y345439D01*
X77216Y345439D01*
X77190Y345436D01*
X77164Y345438D01*
X77017Y345416D01*
X76870Y345399D01*
X76845Y345391D01*
X76819Y345387D01*
X76682Y345332D01*
X76542Y345282D01*
X76520Y345268D01*
X76495Y345258D01*
X76374Y345173D01*
X76249Y345093D01*
X76231Y345074D01*
X76209Y345059D01*
X76110Y344949D01*
X76007Y344842D01*
X75993Y344820D01*
X75976Y344800D01*
X75904Y344670D01*
X75828Y344543D01*
X75820Y344518D01*
X75807Y344495D01*
X75767Y344352D01*
X75722Y344211D01*
X75720Y344185D01*
X75713Y344160D01*
X75693Y343916D01*
X75693Y341884D01*
X75696Y341858D01*
X75694Y341832D01*
X75716Y341685D01*
X75733Y341538D01*
X75742Y341513D01*
X75746Y341487D01*
X75800Y341349D01*
X75850Y341210D01*
X75865Y341188D01*
X75874Y341163D01*
X75959Y341042D01*
X76039Y340917D01*
X76058Y340899D01*
X76073Y340877D01*
X76183Y340778D01*
X76290Y340675D01*
X76313Y340661D01*
X76332Y340644D01*
X76462Y340572D01*
X76589Y340496D01*
X76614Y340488D01*
X76637Y340475D01*
X76780Y340435D01*
X76921Y340390D01*
X76947Y340387D01*
X76972Y340380D01*
X77216Y340361D01*
X87885Y340361D01*
X87845Y340104D01*
X87264Y338317D01*
X86411Y336643D01*
X85306Y335122D01*
X83978Y333794D01*
X82457Y332689D01*
X81927Y332419D01*
X81894Y332397D01*
X81856Y332380D01*
X81748Y332300D01*
X81637Y332226D01*
X81609Y332197D01*
X81576Y332172D01*
X81490Y332070D01*
X81398Y331973D01*
X81378Y331937D01*
X81351Y331906D01*
X81290Y331787D01*
X81223Y331671D01*
X81211Y331633D01*
X81192Y331596D01*
X81160Y331466D01*
X81121Y331338D01*
X81118Y331298D01*
X81108Y331258D01*
X81106Y331124D01*
X81097Y330991D01*
X81104Y330950D01*
X81103Y330910D01*
X81132Y330779D01*
X81153Y330647D01*
X81169Y330609D01*
X81178Y330569D01*
X81235Y330448D01*
X81286Y330324D01*
X81310Y330291D01*
X81327Y330254D01*
X81411Y330150D01*
X81489Y330041D01*
X81519Y330014D01*
X81545Y329982D01*
X81650Y329899D01*
X81750Y329811D01*
X81786Y329791D01*
X81818Y329766D01*
X82036Y329655D01*
X83826Y328913D01*
X87613Y325126D01*
X89663Y320178D01*
X89663Y314822D01*
X87613Y309874D01*
X83616Y305877D01*
X83600Y305857D01*
X83580Y305840D01*
X83492Y305720D01*
X83400Y305604D01*
X83388Y305580D01*
X83373Y305559D01*
X83314Y305423D01*
X83251Y305289D01*
X83245Y305263D01*
X83235Y305239D01*
X83209Y305093D01*
X83177Y304948D01*
X83178Y304922D01*
X83173Y304896D01*
X83181Y304748D01*
X83183Y304600D01*
X83190Y304574D01*
X83191Y304548D01*
X83232Y304406D01*
X83268Y304262D01*
X83280Y304239D01*
X83288Y304213D01*
X83360Y304084D01*
X83428Y303952D01*
X83445Y303932D01*
X83458Y303909D01*
X83616Y303723D01*
X87613Y299726D01*
X89663Y294778D01*
X89663Y289422D01*
X87613Y284474D01*
X83616Y280477D01*
X83600Y280457D01*
X83580Y280440D01*
X83492Y280320D01*
X83400Y280204D01*
X83388Y280180D01*
X83373Y280159D01*
X83314Y280023D01*
X83251Y279889D01*
X83245Y279863D01*
X83235Y279839D01*
X83209Y279693D01*
X83177Y279548D01*
X83178Y279522D01*
X83173Y279496D01*
X83181Y279348D01*
X83183Y279200D01*
X83190Y279174D01*
X83191Y279148D01*
X83232Y279006D01*
X83268Y278862D01*
X83280Y278839D01*
X83288Y278813D01*
X83360Y278684D01*
X83428Y278552D01*
X83445Y278532D01*
X83458Y278509D01*
X83616Y278323D01*
X87613Y274326D01*
X89663Y269378D01*
X89663Y264022D01*
X87613Y259074D01*
X83616Y255077D01*
X83600Y255057D01*
X83580Y255040D01*
X83491Y254920D01*
X83400Y254804D01*
X83388Y254780D01*
X83373Y254759D01*
X83314Y254623D01*
X83251Y254489D01*
X83245Y254463D01*
X83235Y254439D01*
X83209Y254293D01*
X83177Y254148D01*
X83178Y254122D01*
X83173Y254096D01*
X83181Y253948D01*
X83183Y253800D01*
X83190Y253774D01*
X83191Y253748D01*
X83232Y253606D01*
X83268Y253462D01*
X83280Y253439D01*
X83288Y253413D01*
X83360Y253284D01*
X83428Y253152D01*
X83445Y253132D01*
X83458Y253109D01*
X83616Y252923D01*
X87613Y248926D01*
X89663Y243978D01*
X89663Y238622D01*
X87613Y233674D01*
X83616Y229677D01*
X83600Y229657D01*
X83580Y229640D01*
X83492Y229520D01*
X83400Y229404D01*
X83388Y229380D01*
X83373Y229359D01*
X83314Y229223D01*
X83251Y229089D01*
X83245Y229063D01*
X83235Y229039D01*
X83209Y228893D01*
X83177Y228748D01*
X83178Y228722D01*
X83173Y228696D01*
X83181Y228548D01*
X83183Y228400D01*
X83190Y228374D01*
X83191Y228348D01*
X83232Y228206D01*
X83268Y228062D01*
X83280Y228039D01*
X83288Y228013D01*
X83360Y227884D01*
X83428Y227752D01*
X83445Y227732D01*
X83458Y227709D01*
X83616Y227523D01*
X87613Y223526D01*
X89663Y218578D01*
X89663Y213222D01*
X87613Y208274D01*
X83616Y204277D01*
X83600Y204257D01*
X83580Y204240D01*
X83492Y204120D01*
X83400Y204004D01*
X83388Y203980D01*
X83373Y203959D01*
X83314Y203823D01*
X83251Y203689D01*
X83245Y203663D01*
X83235Y203639D01*
X83209Y203493D01*
X83177Y203348D01*
X83178Y203322D01*
X83173Y203296D01*
X83181Y203148D01*
X83183Y203000D01*
X83190Y202974D01*
X83191Y202948D01*
X83232Y202806D01*
X83268Y202662D01*
X83280Y202639D01*
X83288Y202613D01*
X83360Y202484D01*
X83428Y202352D01*
X83445Y202332D01*
X83458Y202309D01*
X83616Y202123D01*
X87613Y198126D01*
X89663Y193178D01*
X89663Y187822D01*
X87613Y182874D01*
X83616Y178877D01*
X83600Y178857D01*
X83580Y178840D01*
X83491Y178720D01*
X83400Y178604D01*
X83388Y178580D01*
X83373Y178559D01*
X83314Y178423D01*
X83251Y178289D01*
X83245Y178263D01*
X83235Y178239D01*
X83209Y178093D01*
X83177Y177948D01*
X83178Y177922D01*
X83173Y177896D01*
X83181Y177748D01*
X83183Y177600D01*
X83190Y177574D01*
X83191Y177548D01*
X83232Y177406D01*
X83268Y177262D01*
X83280Y177239D01*
X83288Y177213D01*
X83360Y177084D01*
X83428Y176952D01*
X83445Y176932D01*
X83458Y176909D01*
X83616Y176723D01*
X87613Y172726D01*
X89663Y167778D01*
X89663Y162422D01*
X87613Y157474D01*
X83826Y153687D01*
X82036Y152945D01*
X82000Y152926D01*
X81962Y152912D01*
X81848Y152841D01*
X81731Y152776D01*
X81701Y152749D01*
X81667Y152727D01*
X81572Y152632D01*
X81473Y152542D01*
X81450Y152508D01*
X81421Y152480D01*
X81351Y152365D01*
X81275Y152255D01*
X81260Y152217D01*
X81239Y152183D01*
X81196Y152055D01*
X81147Y151931D01*
X81141Y151891D01*
X81128Y151852D01*
X81116Y151719D01*
X81096Y151586D01*
X81100Y151546D01*
X81096Y151505D01*
X81114Y151372D01*
X81125Y151239D01*
X81138Y151200D01*
X81143Y151160D01*
X81191Y151035D01*
X81232Y150907D01*
X81253Y150872D01*
X81268Y150834D01*
X81343Y150723D01*
X81412Y150609D01*
X81441Y150579D01*
X81463Y150546D01*
X81561Y150455D01*
X81655Y150359D01*
X81689Y150337D01*
X81719Y150309D01*
X81927Y150181D01*
X82457Y149911D01*
X83978Y148806D01*
X85306Y147478D01*
X86411Y145957D01*
X87264Y144283D01*
X87845Y142496D01*
X87885Y142239D01*
X77216Y142239D01*
X77190Y142236D01*
X77164Y142238D01*
X77017Y142216D01*
X76870Y142199D01*
X76845Y142191D01*
X76819Y142187D01*
X76682Y142132D01*
X76542Y142082D01*
X76520Y142068D01*
X76495Y142058D01*
X76374Y141973D01*
X76249Y141893D01*
X76231Y141874D01*
X76209Y141859D01*
X76110Y141749D01*
X76007Y141642D01*
X75993Y141620D01*
X75976Y141600D01*
X75904Y141470D01*
X75828Y141343D01*
X75820Y141318D01*
X75807Y141295D01*
X75767Y141152D01*
X75722Y141011D01*
X75720Y140985D01*
X75713Y140960D01*
X75693Y140716D01*
X75693Y138684D01*
X75696Y138658D01*
X75694Y138632D01*
X75716Y138485D01*
X75733Y138338D01*
X75742Y138313D01*
X75746Y138287D01*
X75800Y138149D01*
X75850Y138010D01*
X75865Y137988D01*
X75874Y137963D01*
X75959Y137842D01*
X76039Y137717D01*
X76058Y137699D01*
X76073Y137677D01*
X76183Y137578D01*
X76290Y137475D01*
X76313Y137461D01*
X76332Y137444D01*
X76462Y137372D01*
X76589Y137296D01*
X76614Y137288D01*
X76637Y137275D01*
X76780Y137235D01*
X76921Y137190D01*
X76947Y137187D01*
X76972Y137180D01*
X77216Y137161D01*
X87885Y137161D01*
X87845Y136904D01*
X87264Y135117D01*
X86411Y133443D01*
X85306Y131922D01*
X83978Y130594D01*
X82457Y129489D01*
X81927Y129219D01*
X81894Y129197D01*
X81856Y129180D01*
X81748Y129100D01*
X81637Y129026D01*
X81609Y128997D01*
X81576Y128972D01*
X81490Y128870D01*
X81398Y128773D01*
X81378Y128737D01*
X81351Y128706D01*
X81290Y128587D01*
X81223Y128471D01*
X81211Y128433D01*
X81192Y128396D01*
X81160Y128266D01*
X81121Y128138D01*
X81118Y128098D01*
X81108Y128058D01*
X81106Y127924D01*
X81097Y127791D01*
X81104Y127750D01*
X81103Y127710D01*
X81132Y127579D01*
X81153Y127447D01*
X81169Y127409D01*
X81178Y127369D01*
X81235Y127248D01*
X81286Y127124D01*
X81310Y127091D01*
X81327Y127054D01*
X81411Y126950D01*
X81489Y126841D01*
X81519Y126814D01*
X81545Y126782D01*
X81650Y126699D01*
X81750Y126611D01*
X81786Y126591D01*
X81818Y126566D01*
X82036Y126455D01*
X83826Y125713D01*
X87613Y121926D01*
X89663Y116978D01*
X89663Y111622D01*
X87613Y106674D01*
X83616Y102677D01*
X83600Y102657D01*
X83580Y102640D01*
X83492Y102520D01*
X83400Y102404D01*
X83388Y102380D01*
X83373Y102359D01*
X83314Y102223D01*
X83251Y102089D01*
X83245Y102063D01*
X83235Y102039D01*
X83209Y101893D01*
X83177Y101748D01*
X83178Y101722D01*
X83173Y101696D01*
X83181Y101548D01*
X83183Y101400D01*
X83190Y101374D01*
X83191Y101348D01*
X83232Y101206D01*
X83268Y101062D01*
X83280Y101039D01*
X83288Y101013D01*
X83360Y100884D01*
X83428Y100752D01*
X83445Y100732D01*
X83458Y100709D01*
X83616Y100523D01*
X87613Y96526D01*
X89663Y91578D01*
X89663Y86222D01*
X87613Y81274D01*
X83616Y77277D01*
X83600Y77257D01*
X83580Y77240D01*
X83491Y77120D01*
X83400Y77004D01*
X83388Y76980D01*
X83373Y76959D01*
X83314Y76823D01*
X83251Y76689D01*
X83245Y76663D01*
X83235Y76639D01*
X83209Y76493D01*
X83177Y76348D01*
X83178Y76322D01*
X83173Y76296D01*
X83181Y76148D01*
X83183Y76000D01*
X83190Y75974D01*
X83191Y75948D01*
X83232Y75806D01*
X83268Y75662D01*
X83280Y75639D01*
X83288Y75613D01*
X83360Y75484D01*
X83428Y75352D01*
X83445Y75332D01*
X83458Y75309D01*
X83616Y75123D01*
X87613Y71126D01*
X89663Y66178D01*
X89663Y60822D01*
X87613Y55874D01*
X83616Y51877D01*
X83600Y51857D01*
X83580Y51840D01*
X83492Y51720D01*
X83400Y51604D01*
X83388Y51580D01*
X83373Y51559D01*
X83314Y51423D01*
X83251Y51289D01*
X83245Y51263D01*
X83235Y51239D01*
X83209Y51093D01*
X83177Y50948D01*
X83178Y50922D01*
X83173Y50896D01*
X83181Y50748D01*
X83183Y50600D01*
X83190Y50574D01*
X83191Y50548D01*
X83232Y50406D01*
X83268Y50262D01*
X83280Y50239D01*
X83288Y50213D01*
X83360Y50084D01*
X83428Y49952D01*
X83445Y49932D01*
X83458Y49909D01*
X83616Y49723D01*
X87613Y45726D01*
X89663Y40778D01*
X89663Y35422D01*
X87613Y30474D01*
X83826Y26687D01*
X78878Y24637D01*
X73522Y24637D01*
X68574Y26687D01*
X64577Y30684D01*
X64557Y30700D01*
X64540Y30720D01*
X64420Y30808D01*
X64304Y30900D01*
X64280Y30912D01*
X64259Y30927D01*
X64123Y30986D01*
X63989Y31049D01*
X63963Y31055D01*
X63939Y31065D01*
X63793Y31091D01*
X63648Y31123D01*
X63622Y31122D01*
X63596Y31127D01*
X63448Y31119D01*
X63300Y31117D01*
X63274Y31110D01*
X63248Y31109D01*
X63106Y31068D01*
X62962Y31032D01*
X62939Y31020D01*
X62913Y31012D01*
X62784Y30940D01*
X62652Y30872D01*
X62632Y30855D01*
X62609Y30842D01*
X62423Y30684D01*
X58426Y26687D01*
X53478Y24637D01*
X48122Y24637D01*
G37*
%LPD*%
%LPC*%
G36*
X820660Y26415D02*
X820660Y26415D01*
X813815Y33260D01*
X813815Y42940D01*
X820598Y49723D01*
X820614Y49743D01*
X820634Y49760D01*
X820723Y49880D01*
X820815Y49996D01*
X820826Y50020D01*
X820842Y50041D01*
X820900Y50177D01*
X820964Y50311D01*
X820969Y50337D01*
X820980Y50361D01*
X821006Y50507D01*
X821037Y50652D01*
X821037Y50678D01*
X821041Y50704D01*
X821034Y50852D01*
X821031Y51000D01*
X821025Y51026D01*
X821023Y51052D01*
X820982Y51194D01*
X820946Y51338D01*
X820934Y51361D01*
X820927Y51387D01*
X820855Y51516D01*
X820787Y51648D01*
X820770Y51668D01*
X820757Y51691D01*
X820598Y51877D01*
X813815Y58660D01*
X813815Y68340D01*
X820660Y75185D01*
X830340Y75185D01*
X837123Y68402D01*
X837143Y68386D01*
X837160Y68366D01*
X837280Y68277D01*
X837396Y68185D01*
X837420Y68174D01*
X837441Y68158D01*
X837577Y68100D01*
X837711Y68036D01*
X837737Y68031D01*
X837761Y68020D01*
X837907Y67994D01*
X838052Y67963D01*
X838078Y67963D01*
X838104Y67959D01*
X838252Y67966D01*
X838400Y67969D01*
X838426Y67975D01*
X838452Y67977D01*
X838594Y68018D01*
X838738Y68054D01*
X838762Y68066D01*
X838787Y68073D01*
X838916Y68145D01*
X839048Y68213D01*
X839068Y68230D01*
X839091Y68243D01*
X839277Y68402D01*
X845998Y75123D01*
X846014Y75143D01*
X846034Y75160D01*
X846123Y75280D01*
X846215Y75396D01*
X846226Y75420D01*
X846242Y75441D01*
X846300Y75577D01*
X846364Y75711D01*
X846369Y75737D01*
X846380Y75761D01*
X846406Y75907D01*
X846437Y76052D01*
X846437Y76078D01*
X846441Y76104D01*
X846434Y76252D01*
X846431Y76400D01*
X846425Y76426D01*
X846423Y76452D01*
X846382Y76594D01*
X846346Y76738D01*
X846334Y76761D01*
X846327Y76787D01*
X846255Y76916D01*
X846187Y77048D01*
X846170Y77068D01*
X846157Y77091D01*
X845998Y77277D01*
X839215Y84060D01*
X839215Y93740D01*
X845998Y100523D01*
X846014Y100543D01*
X846034Y100560D01*
X846123Y100680D01*
X846215Y100796D01*
X846226Y100820D01*
X846242Y100841D01*
X846300Y100977D01*
X846364Y101111D01*
X846369Y101137D01*
X846380Y101161D01*
X846406Y101307D01*
X846437Y101452D01*
X846437Y101478D01*
X846441Y101504D01*
X846434Y101652D01*
X846431Y101800D01*
X846425Y101826D01*
X846423Y101852D01*
X846382Y101994D01*
X846346Y102138D01*
X846334Y102161D01*
X846327Y102187D01*
X846255Y102316D01*
X846187Y102448D01*
X846169Y102468D01*
X846157Y102491D01*
X845998Y102677D01*
X839277Y109398D01*
X839257Y109414D01*
X839240Y109434D01*
X839120Y109523D01*
X839004Y109615D01*
X838980Y109626D01*
X838959Y109642D01*
X838823Y109700D01*
X838689Y109764D01*
X838663Y109769D01*
X838639Y109780D01*
X838493Y109806D01*
X838348Y109837D01*
X838322Y109837D01*
X838296Y109841D01*
X838148Y109834D01*
X838000Y109831D01*
X837974Y109825D01*
X837948Y109823D01*
X837806Y109782D01*
X837662Y109746D01*
X837639Y109734D01*
X837613Y109727D01*
X837484Y109655D01*
X837352Y109587D01*
X837332Y109570D01*
X837309Y109557D01*
X837123Y109398D01*
X830340Y102615D01*
X820660Y102615D01*
X813815Y109460D01*
X813815Y119140D01*
X820598Y125923D01*
X820614Y125943D01*
X820634Y125960D01*
X820723Y126080D01*
X820815Y126196D01*
X820826Y126220D01*
X820842Y126241D01*
X820900Y126377D01*
X820964Y126511D01*
X820969Y126537D01*
X820980Y126561D01*
X821006Y126706D01*
X821037Y126852D01*
X821037Y126878D01*
X821041Y126904D01*
X821034Y127052D01*
X821031Y127200D01*
X821025Y127226D01*
X821023Y127252D01*
X820982Y127394D01*
X820946Y127538D01*
X820934Y127561D01*
X820927Y127587D01*
X820855Y127716D01*
X820787Y127848D01*
X820770Y127868D01*
X820757Y127891D01*
X820598Y128077D01*
X813815Y134860D01*
X813815Y144540D01*
X820598Y151323D01*
X820614Y151343D01*
X820634Y151360D01*
X820723Y151480D01*
X820815Y151596D01*
X820826Y151620D01*
X820842Y151641D01*
X820900Y151777D01*
X820964Y151911D01*
X820969Y151937D01*
X820980Y151961D01*
X821006Y152107D01*
X821037Y152252D01*
X821037Y152278D01*
X821041Y152304D01*
X821034Y152452D01*
X821031Y152600D01*
X821025Y152626D01*
X821023Y152652D01*
X820982Y152794D01*
X820946Y152938D01*
X820934Y152961D01*
X820927Y152987D01*
X820855Y153116D01*
X820787Y153248D01*
X820770Y153268D01*
X820757Y153291D01*
X820598Y153477D01*
X813815Y160260D01*
X813815Y169940D01*
X820660Y176785D01*
X830340Y176785D01*
X837123Y170002D01*
X837143Y169986D01*
X837160Y169966D01*
X837280Y169877D01*
X837396Y169785D01*
X837420Y169774D01*
X837441Y169758D01*
X837577Y169700D01*
X837711Y169636D01*
X837737Y169631D01*
X837761Y169620D01*
X837907Y169594D01*
X838052Y169563D01*
X838078Y169563D01*
X838104Y169559D01*
X838252Y169566D01*
X838400Y169569D01*
X838426Y169575D01*
X838452Y169577D01*
X838594Y169618D01*
X838738Y169654D01*
X838762Y169666D01*
X838787Y169673D01*
X838916Y169745D01*
X839048Y169813D01*
X839068Y169830D01*
X839091Y169843D01*
X839277Y170002D01*
X845998Y176723D01*
X846014Y176743D01*
X846034Y176760D01*
X846123Y176880D01*
X846215Y176996D01*
X846226Y177020D01*
X846242Y177041D01*
X846300Y177177D01*
X846364Y177311D01*
X846369Y177337D01*
X846380Y177361D01*
X846406Y177507D01*
X846437Y177652D01*
X846437Y177678D01*
X846441Y177704D01*
X846434Y177852D01*
X846431Y178000D01*
X846425Y178026D01*
X846423Y178052D01*
X846382Y178194D01*
X846346Y178338D01*
X846334Y178361D01*
X846327Y178387D01*
X846255Y178516D01*
X846187Y178648D01*
X846170Y178668D01*
X846157Y178691D01*
X845998Y178877D01*
X839215Y185660D01*
X839215Y195340D01*
X845998Y202123D01*
X846014Y202143D01*
X846034Y202160D01*
X846123Y202280D01*
X846215Y202396D01*
X846226Y202420D01*
X846242Y202441D01*
X846300Y202577D01*
X846364Y202711D01*
X846369Y202737D01*
X846380Y202761D01*
X846406Y202907D01*
X846437Y203052D01*
X846437Y203078D01*
X846441Y203104D01*
X846434Y203252D01*
X846431Y203400D01*
X846425Y203426D01*
X846423Y203452D01*
X846382Y203594D01*
X846346Y203738D01*
X846334Y203761D01*
X846327Y203787D01*
X846255Y203916D01*
X846187Y204048D01*
X846169Y204068D01*
X846157Y204091D01*
X845998Y204277D01*
X839277Y210998D01*
X839257Y211014D01*
X839240Y211034D01*
X839120Y211123D01*
X839004Y211215D01*
X838980Y211226D01*
X838959Y211242D01*
X838823Y211300D01*
X838689Y211364D01*
X838663Y211369D01*
X838639Y211380D01*
X838493Y211406D01*
X838348Y211437D01*
X838322Y211437D01*
X838296Y211441D01*
X838148Y211434D01*
X838000Y211431D01*
X837974Y211425D01*
X837948Y211423D01*
X837806Y211382D01*
X837662Y211346D01*
X837639Y211334D01*
X837613Y211327D01*
X837484Y211255D01*
X837352Y211187D01*
X837332Y211170D01*
X837309Y211157D01*
X837123Y210998D01*
X830340Y204215D01*
X820660Y204215D01*
X813815Y211060D01*
X813815Y220740D01*
X820598Y227523D01*
X820614Y227543D01*
X820634Y227560D01*
X820723Y227680D01*
X820815Y227796D01*
X820826Y227820D01*
X820842Y227841D01*
X820900Y227977D01*
X820964Y228111D01*
X820969Y228137D01*
X820980Y228161D01*
X821006Y228307D01*
X821037Y228452D01*
X821037Y228478D01*
X821041Y228504D01*
X821034Y228652D01*
X821031Y228800D01*
X821025Y228826D01*
X821023Y228852D01*
X820982Y228994D01*
X820946Y229138D01*
X820934Y229161D01*
X820927Y229187D01*
X820855Y229316D01*
X820787Y229448D01*
X820770Y229468D01*
X820757Y229491D01*
X820598Y229677D01*
X813815Y236460D01*
X813815Y246140D01*
X820660Y252985D01*
X830340Y252985D01*
X837123Y246202D01*
X837143Y246186D01*
X837160Y246166D01*
X837280Y246077D01*
X837396Y245985D01*
X837420Y245974D01*
X837441Y245958D01*
X837577Y245900D01*
X837711Y245836D01*
X837737Y245831D01*
X837761Y245820D01*
X837907Y245794D01*
X838052Y245763D01*
X838078Y245763D01*
X838104Y245759D01*
X838252Y245766D01*
X838400Y245769D01*
X838426Y245775D01*
X838452Y245777D01*
X838594Y245818D01*
X838738Y245854D01*
X838762Y245866D01*
X838787Y245873D01*
X838916Y245945D01*
X839048Y246013D01*
X839068Y246030D01*
X839091Y246043D01*
X839277Y246202D01*
X845998Y252923D01*
X846014Y252943D01*
X846034Y252960D01*
X846123Y253080D01*
X846215Y253196D01*
X846226Y253220D01*
X846242Y253241D01*
X846300Y253377D01*
X846364Y253511D01*
X846369Y253537D01*
X846380Y253561D01*
X846406Y253707D01*
X846437Y253852D01*
X846437Y253878D01*
X846441Y253904D01*
X846434Y254052D01*
X846431Y254200D01*
X846425Y254226D01*
X846423Y254252D01*
X846382Y254394D01*
X846346Y254538D01*
X846334Y254561D01*
X846327Y254587D01*
X846255Y254716D01*
X846187Y254848D01*
X846170Y254868D01*
X846157Y254891D01*
X845998Y255077D01*
X839215Y261860D01*
X839215Y271540D01*
X845998Y278323D01*
X846014Y278343D01*
X846034Y278360D01*
X846123Y278480D01*
X846215Y278596D01*
X846226Y278620D01*
X846242Y278641D01*
X846300Y278777D01*
X846364Y278911D01*
X846369Y278937D01*
X846380Y278961D01*
X846406Y279107D01*
X846437Y279252D01*
X846437Y279278D01*
X846441Y279304D01*
X846434Y279452D01*
X846431Y279600D01*
X846425Y279626D01*
X846423Y279652D01*
X846382Y279794D01*
X846346Y279938D01*
X846334Y279962D01*
X846327Y279987D01*
X846255Y280116D01*
X846187Y280248D01*
X846170Y280268D01*
X846157Y280291D01*
X845998Y280477D01*
X839277Y287198D01*
X839257Y287214D01*
X839240Y287234D01*
X839120Y287323D01*
X839004Y287415D01*
X838980Y287426D01*
X838959Y287442D01*
X838823Y287500D01*
X838689Y287564D01*
X838663Y287569D01*
X838639Y287580D01*
X838493Y287606D01*
X838348Y287637D01*
X838322Y287637D01*
X838296Y287641D01*
X838148Y287634D01*
X838000Y287631D01*
X837974Y287625D01*
X837948Y287623D01*
X837806Y287582D01*
X837662Y287546D01*
X837639Y287534D01*
X837613Y287527D01*
X837484Y287455D01*
X837352Y287387D01*
X837332Y287370D01*
X837309Y287357D01*
X837123Y287198D01*
X830340Y280415D01*
X820660Y280415D01*
X813815Y287260D01*
X813815Y296940D01*
X820598Y303723D01*
X820614Y303743D01*
X820634Y303760D01*
X820723Y303880D01*
X820815Y303996D01*
X820826Y304020D01*
X820842Y304041D01*
X820900Y304177D01*
X820964Y304311D01*
X820969Y304337D01*
X820980Y304361D01*
X821006Y304507D01*
X821037Y304652D01*
X821037Y304678D01*
X821041Y304704D01*
X821034Y304852D01*
X821031Y305000D01*
X821025Y305026D01*
X821023Y305052D01*
X820982Y305194D01*
X820946Y305338D01*
X820934Y305361D01*
X820927Y305387D01*
X820855Y305516D01*
X820787Y305648D01*
X820770Y305668D01*
X820757Y305691D01*
X820598Y305877D01*
X813815Y312660D01*
X813815Y322340D01*
X820598Y329123D01*
X820614Y329143D01*
X820634Y329160D01*
X820723Y329280D01*
X820815Y329396D01*
X820826Y329420D01*
X820842Y329441D01*
X820900Y329577D01*
X820964Y329711D01*
X820969Y329737D01*
X820980Y329761D01*
X821006Y329907D01*
X821037Y330052D01*
X821037Y330078D01*
X821041Y330104D01*
X821034Y330252D01*
X821031Y330400D01*
X821025Y330426D01*
X821023Y330452D01*
X820982Y330594D01*
X820946Y330738D01*
X820934Y330761D01*
X820927Y330787D01*
X820855Y330916D01*
X820787Y331048D01*
X820770Y331068D01*
X820757Y331091D01*
X820598Y331277D01*
X813815Y338060D01*
X813815Y347740D01*
X820660Y354585D01*
X830340Y354585D01*
X837185Y347740D01*
X837185Y338060D01*
X830402Y331277D01*
X830386Y331257D01*
X830366Y331240D01*
X830277Y331120D01*
X830185Y331004D01*
X830174Y330980D01*
X830158Y330959D01*
X830100Y330823D01*
X830036Y330689D01*
X830031Y330663D01*
X830020Y330639D01*
X829994Y330493D01*
X829963Y330348D01*
X829963Y330322D01*
X829959Y330296D01*
X829966Y330148D01*
X829969Y330000D01*
X829975Y329974D01*
X829977Y329948D01*
X830018Y329806D01*
X830054Y329662D01*
X830066Y329639D01*
X830073Y329613D01*
X830146Y329484D01*
X830213Y329352D01*
X830230Y329332D01*
X830243Y329309D01*
X830402Y329123D01*
X837123Y322402D01*
X837143Y322386D01*
X837160Y322366D01*
X837280Y322277D01*
X837396Y322185D01*
X837420Y322174D01*
X837441Y322158D01*
X837577Y322100D01*
X837711Y322036D01*
X837737Y322031D01*
X837761Y322020D01*
X837907Y321994D01*
X838052Y321963D01*
X838078Y321963D01*
X838104Y321959D01*
X838252Y321966D01*
X838400Y321969D01*
X838426Y321975D01*
X838452Y321977D01*
X838594Y322018D01*
X838738Y322054D01*
X838762Y322066D01*
X838787Y322073D01*
X838916Y322145D01*
X839048Y322213D01*
X839068Y322230D01*
X839091Y322243D01*
X839277Y322402D01*
X846060Y329185D01*
X855740Y329185D01*
X862585Y322340D01*
X862585Y312660D01*
X855802Y305877D01*
X855786Y305857D01*
X855766Y305840D01*
X855677Y305720D01*
X855585Y305604D01*
X855574Y305580D01*
X855558Y305559D01*
X855500Y305423D01*
X855436Y305289D01*
X855431Y305263D01*
X855420Y305239D01*
X855394Y305093D01*
X855363Y304948D01*
X855363Y304922D01*
X855359Y304896D01*
X855366Y304748D01*
X855369Y304600D01*
X855375Y304574D01*
X855377Y304548D01*
X855418Y304406D01*
X855454Y304262D01*
X855466Y304238D01*
X855473Y304213D01*
X855545Y304084D01*
X855613Y303952D01*
X855630Y303932D01*
X855643Y303909D01*
X855802Y303723D01*
X862585Y296940D01*
X862585Y287260D01*
X855802Y280477D01*
X855786Y280457D01*
X855766Y280440D01*
X855677Y280320D01*
X855585Y280204D01*
X855574Y280180D01*
X855558Y280159D01*
X855500Y280023D01*
X855436Y279889D01*
X855431Y279863D01*
X855420Y279839D01*
X855394Y279693D01*
X855363Y279548D01*
X855363Y279522D01*
X855359Y279496D01*
X855366Y279348D01*
X855369Y279200D01*
X855375Y279174D01*
X855377Y279148D01*
X855418Y279006D01*
X855454Y278862D01*
X855466Y278839D01*
X855473Y278813D01*
X855545Y278684D01*
X855613Y278552D01*
X855630Y278532D01*
X855643Y278509D01*
X855802Y278323D01*
X862585Y271540D01*
X862585Y261860D01*
X855802Y255077D01*
X855786Y255057D01*
X855766Y255040D01*
X855677Y254920D01*
X855585Y254804D01*
X855574Y254780D01*
X855558Y254759D01*
X855500Y254623D01*
X855436Y254489D01*
X855431Y254463D01*
X855420Y254439D01*
X855394Y254293D01*
X855363Y254148D01*
X855363Y254122D01*
X855359Y254096D01*
X855366Y253948D01*
X855369Y253800D01*
X855375Y253774D01*
X855377Y253748D01*
X855418Y253606D01*
X855454Y253462D01*
X855466Y253438D01*
X855473Y253413D01*
X855545Y253284D01*
X855613Y253152D01*
X855630Y253132D01*
X855643Y253109D01*
X855802Y252923D01*
X862585Y246140D01*
X862585Y236460D01*
X855802Y229677D01*
X855786Y229657D01*
X855766Y229640D01*
X855677Y229520D01*
X855585Y229404D01*
X855574Y229380D01*
X855558Y229359D01*
X855500Y229223D01*
X855436Y229089D01*
X855431Y229063D01*
X855420Y229039D01*
X855394Y228893D01*
X855363Y228748D01*
X855363Y228722D01*
X855359Y228696D01*
X855366Y228548D01*
X855369Y228400D01*
X855375Y228374D01*
X855377Y228348D01*
X855418Y228206D01*
X855454Y228062D01*
X855466Y228038D01*
X855473Y228013D01*
X855545Y227884D01*
X855613Y227752D01*
X855630Y227732D01*
X855643Y227709D01*
X855802Y227523D01*
X862585Y220740D01*
X862585Y211060D01*
X855802Y204277D01*
X855786Y204257D01*
X855766Y204240D01*
X855677Y204120D01*
X855585Y204004D01*
X855574Y203980D01*
X855558Y203959D01*
X855500Y203823D01*
X855436Y203689D01*
X855431Y203663D01*
X855420Y203639D01*
X855394Y203493D01*
X855363Y203348D01*
X855363Y203322D01*
X855359Y203296D01*
X855366Y203148D01*
X855369Y203000D01*
X855375Y202974D01*
X855377Y202948D01*
X855418Y202806D01*
X855454Y202662D01*
X855466Y202638D01*
X855473Y202613D01*
X855545Y202484D01*
X855613Y202352D01*
X855630Y202332D01*
X855643Y202309D01*
X855802Y202123D01*
X862585Y195340D01*
X862585Y185660D01*
X855802Y178877D01*
X855786Y178857D01*
X855766Y178840D01*
X855677Y178720D01*
X855585Y178604D01*
X855574Y178580D01*
X855558Y178559D01*
X855500Y178423D01*
X855436Y178289D01*
X855431Y178263D01*
X855420Y178239D01*
X855394Y178093D01*
X855363Y177948D01*
X855363Y177922D01*
X855359Y177896D01*
X855366Y177748D01*
X855369Y177600D01*
X855375Y177574D01*
X855377Y177548D01*
X855418Y177406D01*
X855454Y177262D01*
X855466Y177238D01*
X855473Y177213D01*
X855545Y177084D01*
X855613Y176952D01*
X855630Y176932D01*
X855643Y176909D01*
X855802Y176723D01*
X862585Y169940D01*
X862585Y160260D01*
X855740Y153415D01*
X846060Y153415D01*
X839277Y160198D01*
X839257Y160214D01*
X839240Y160234D01*
X839120Y160323D01*
X839004Y160415D01*
X838980Y160426D01*
X838959Y160442D01*
X838823Y160500D01*
X838689Y160564D01*
X838663Y160569D01*
X838639Y160580D01*
X838493Y160606D01*
X838348Y160637D01*
X838322Y160637D01*
X838296Y160641D01*
X838148Y160634D01*
X838000Y160631D01*
X837974Y160625D01*
X837948Y160623D01*
X837806Y160582D01*
X837662Y160546D01*
X837639Y160534D01*
X837613Y160527D01*
X837484Y160455D01*
X837352Y160387D01*
X837332Y160370D01*
X837309Y160357D01*
X837123Y160198D01*
X830402Y153477D01*
X830386Y153457D01*
X830366Y153440D01*
X830277Y153320D01*
X830185Y153204D01*
X830174Y153180D01*
X830158Y153159D01*
X830100Y153023D01*
X830036Y152889D01*
X830031Y152863D01*
X830020Y152839D01*
X829994Y152693D01*
X829963Y152548D01*
X829963Y152522D01*
X829959Y152496D01*
X829966Y152348D01*
X829969Y152200D01*
X829975Y152174D01*
X829977Y152148D01*
X830018Y152006D01*
X830054Y151862D01*
X830066Y151838D01*
X830073Y151813D01*
X830145Y151684D01*
X830213Y151552D01*
X830230Y151532D01*
X830243Y151509D01*
X830402Y151323D01*
X837185Y144540D01*
X837185Y134860D01*
X830402Y128077D01*
X830386Y128057D01*
X830366Y128040D01*
X830277Y127920D01*
X830185Y127804D01*
X830174Y127780D01*
X830158Y127759D01*
X830100Y127623D01*
X830036Y127489D01*
X830031Y127463D01*
X830020Y127439D01*
X829994Y127293D01*
X829963Y127148D01*
X829963Y127122D01*
X829959Y127096D01*
X829966Y126948D01*
X829969Y126800D01*
X829975Y126774D01*
X829977Y126748D01*
X830018Y126606D01*
X830054Y126462D01*
X830066Y126439D01*
X830073Y126413D01*
X830146Y126284D01*
X830213Y126152D01*
X830230Y126132D01*
X830243Y126109D01*
X830402Y125923D01*
X837123Y119202D01*
X837143Y119186D01*
X837160Y119166D01*
X837280Y119077D01*
X837396Y118985D01*
X837420Y118974D01*
X837441Y118958D01*
X837577Y118900D01*
X837711Y118836D01*
X837737Y118831D01*
X837761Y118820D01*
X837907Y118794D01*
X838052Y118763D01*
X838078Y118763D01*
X838104Y118759D01*
X838252Y118766D01*
X838400Y118769D01*
X838426Y118775D01*
X838452Y118777D01*
X838594Y118818D01*
X838738Y118854D01*
X838762Y118866D01*
X838787Y118873D01*
X838916Y118945D01*
X839048Y119013D01*
X839068Y119030D01*
X839091Y119043D01*
X839277Y119202D01*
X846060Y125985D01*
X855740Y125985D01*
X862585Y119140D01*
X862585Y109460D01*
X855802Y102677D01*
X855786Y102657D01*
X855766Y102640D01*
X855677Y102520D01*
X855585Y102404D01*
X855574Y102380D01*
X855558Y102359D01*
X855500Y102223D01*
X855436Y102089D01*
X855431Y102063D01*
X855420Y102039D01*
X855394Y101893D01*
X855363Y101748D01*
X855363Y101722D01*
X855359Y101696D01*
X855366Y101548D01*
X855369Y101400D01*
X855375Y101374D01*
X855377Y101348D01*
X855418Y101206D01*
X855454Y101062D01*
X855466Y101038D01*
X855473Y101013D01*
X855545Y100884D01*
X855613Y100752D01*
X855630Y100732D01*
X855643Y100709D01*
X855802Y100523D01*
X862585Y93740D01*
X862585Y84060D01*
X855802Y77277D01*
X855786Y77257D01*
X855766Y77240D01*
X855677Y77120D01*
X855585Y77004D01*
X855574Y76980D01*
X855558Y76959D01*
X855500Y76823D01*
X855436Y76689D01*
X855431Y76663D01*
X855420Y76639D01*
X855394Y76493D01*
X855363Y76348D01*
X855363Y76322D01*
X855359Y76296D01*
X855366Y76148D01*
X855369Y76000D01*
X855375Y75974D01*
X855377Y75948D01*
X855418Y75806D01*
X855454Y75662D01*
X855466Y75638D01*
X855473Y75613D01*
X855545Y75484D01*
X855613Y75352D01*
X855630Y75332D01*
X855643Y75309D01*
X855802Y75123D01*
X862585Y68340D01*
X862585Y58660D01*
X855802Y51877D01*
X855786Y51857D01*
X855766Y51840D01*
X855677Y51720D01*
X855585Y51604D01*
X855574Y51580D01*
X855558Y51559D01*
X855500Y51423D01*
X855436Y51289D01*
X855431Y51263D01*
X855420Y51239D01*
X855394Y51093D01*
X855363Y50948D01*
X855363Y50922D01*
X855359Y50896D01*
X855366Y50748D01*
X855369Y50600D01*
X855375Y50574D01*
X855377Y50548D01*
X855418Y50406D01*
X855454Y50262D01*
X855466Y50238D01*
X855473Y50213D01*
X855545Y50084D01*
X855613Y49952D01*
X855630Y49932D01*
X855643Y49909D01*
X855802Y49723D01*
X862585Y42940D01*
X862585Y33260D01*
X855740Y26415D01*
X846060Y26415D01*
X839277Y33198D01*
X839257Y33214D01*
X839240Y33234D01*
X839120Y33323D01*
X839004Y33415D01*
X838980Y33426D01*
X838959Y33442D01*
X838823Y33500D01*
X838689Y33564D01*
X838663Y33569D01*
X838639Y33580D01*
X838493Y33606D01*
X838348Y33637D01*
X838322Y33637D01*
X838296Y33641D01*
X838148Y33634D01*
X838000Y33631D01*
X837974Y33625D01*
X837948Y33623D01*
X837806Y33582D01*
X837662Y33546D01*
X837639Y33534D01*
X837613Y33527D01*
X837484Y33455D01*
X837352Y33387D01*
X837332Y33370D01*
X837309Y33357D01*
X837123Y33198D01*
X830340Y26415D01*
X820660Y26415D01*
G37*
%LPD*%
%LPC*%
G36*
X193256Y153415D02*
X193256Y153415D01*
X188961Y155194D01*
X185674Y158481D01*
X183895Y162776D01*
X183895Y167424D01*
X185674Y171719D01*
X188961Y175006D01*
X192309Y176393D01*
X192397Y176441D01*
X192489Y176482D01*
X192549Y176526D01*
X192614Y176562D01*
X192688Y176629D01*
X192769Y176689D01*
X192817Y176746D01*
X192872Y176796D01*
X192929Y176879D01*
X192994Y176955D01*
X193028Y177022D01*
X193070Y177083D01*
X193107Y177176D01*
X193153Y177266D01*
X193171Y177338D01*
X193198Y177407D01*
X193213Y177506D01*
X193237Y177604D01*
X193238Y177678D01*
X193249Y177752D01*
X193241Y177852D01*
X193242Y177952D01*
X193226Y178025D01*
X193220Y178099D01*
X193189Y178195D01*
X193168Y178293D01*
X193136Y178360D01*
X193113Y178431D01*
X193061Y178517D01*
X193018Y178608D01*
X192972Y178666D01*
X192933Y178729D01*
X192863Y178802D01*
X192801Y178880D01*
X192742Y178926D01*
X192690Y178979D01*
X192606Y179034D01*
X192527Y179096D01*
X192438Y179142D01*
X192397Y179168D01*
X192363Y179180D01*
X192309Y179207D01*
X188961Y180594D01*
X185674Y183881D01*
X183895Y188176D01*
X183895Y192824D01*
X185674Y197119D01*
X188961Y200406D01*
X192309Y201793D01*
X192397Y201841D01*
X192489Y201882D01*
X192549Y201926D01*
X192614Y201962D01*
X192688Y202029D01*
X192769Y202089D01*
X192817Y202146D01*
X192872Y202196D01*
X192929Y202279D01*
X192994Y202355D01*
X193028Y202422D01*
X193070Y202483D01*
X193107Y202576D01*
X193153Y202666D01*
X193171Y202738D01*
X193198Y202807D01*
X193213Y202906D01*
X193237Y203004D01*
X193238Y203078D01*
X193249Y203152D01*
X193241Y203252D01*
X193242Y203352D01*
X193226Y203425D01*
X193220Y203499D01*
X193189Y203595D01*
X193168Y203693D01*
X193136Y203760D01*
X193113Y203831D01*
X193061Y203917D01*
X193018Y204008D01*
X192972Y204066D01*
X192933Y204129D01*
X192863Y204202D01*
X192801Y204280D01*
X192742Y204326D01*
X192690Y204379D01*
X192606Y204434D01*
X192527Y204496D01*
X192438Y204542D01*
X192397Y204568D01*
X192363Y204580D01*
X192309Y204607D01*
X188961Y205994D01*
X185674Y209281D01*
X183895Y213576D01*
X183895Y218224D01*
X185674Y222519D01*
X188961Y225806D01*
X193256Y227585D01*
X213144Y227585D01*
X217439Y225806D01*
X220726Y222519D01*
X222505Y218224D01*
X222505Y213576D01*
X220726Y209281D01*
X217439Y205994D01*
X214091Y204607D01*
X214003Y204559D01*
X213911Y204519D01*
X213851Y204474D01*
X213786Y204438D01*
X213712Y204371D01*
X213631Y204311D01*
X213583Y204254D01*
X213528Y204204D01*
X213471Y204121D01*
X213406Y204045D01*
X213372Y203978D01*
X213330Y203917D01*
X213293Y203824D01*
X213247Y203734D01*
X213229Y203662D01*
X213202Y203593D01*
X213187Y203493D01*
X213163Y203396D01*
X213162Y203322D01*
X213151Y203248D01*
X213159Y203148D01*
X213158Y203048D01*
X213174Y202975D01*
X213180Y202901D01*
X213211Y202805D01*
X213232Y202707D01*
X213264Y202640D01*
X213287Y202569D01*
X213339Y202483D01*
X213382Y202392D01*
X213428Y202334D01*
X213467Y202271D01*
X213537Y202198D01*
X213599Y202120D01*
X213658Y202074D01*
X213710Y202021D01*
X213794Y201966D01*
X213873Y201904D01*
X213962Y201858D01*
X214003Y201832D01*
X214037Y201820D01*
X214091Y201793D01*
X217439Y200406D01*
X220726Y197119D01*
X222505Y192824D01*
X222505Y188176D01*
X220726Y183881D01*
X217439Y180594D01*
X214091Y179207D01*
X214003Y179159D01*
X213911Y179119D01*
X213851Y179074D01*
X213786Y179038D01*
X213712Y178971D01*
X213631Y178911D01*
X213583Y178854D01*
X213528Y178804D01*
X213471Y178721D01*
X213406Y178645D01*
X213372Y178578D01*
X213330Y178517D01*
X213293Y178424D01*
X213247Y178334D01*
X213229Y178262D01*
X213202Y178193D01*
X213187Y178093D01*
X213163Y177996D01*
X213162Y177922D01*
X213151Y177848D01*
X213159Y177748D01*
X213158Y177648D01*
X213174Y177575D01*
X213180Y177501D01*
X213211Y177405D01*
X213232Y177307D01*
X213264Y177240D01*
X213287Y177169D01*
X213339Y177083D01*
X213382Y176992D01*
X213428Y176934D01*
X213467Y176871D01*
X213537Y176798D01*
X213599Y176720D01*
X213658Y176674D01*
X213710Y176621D01*
X213794Y176566D01*
X213873Y176504D01*
X213962Y176458D01*
X214003Y176432D01*
X214037Y176420D01*
X214091Y176393D01*
X217439Y175006D01*
X220726Y171719D01*
X222505Y167424D01*
X222505Y162776D01*
X220726Y158481D01*
X217439Y155194D01*
X213144Y153415D01*
X193256Y153415D01*
G37*
%LPD*%
%LPC*%
G36*
X358356Y140715D02*
X358356Y140715D01*
X354061Y142494D01*
X350774Y145781D01*
X348995Y150076D01*
X348995Y154724D01*
X350774Y159019D01*
X354061Y162306D01*
X358356Y164085D01*
X378244Y164085D01*
X382539Y162306D01*
X385826Y159019D01*
X387605Y154724D01*
X387605Y150076D01*
X385826Y145781D01*
X382539Y142494D01*
X378244Y140715D01*
X358356Y140715D01*
G37*
%LPD*%
%LPC*%
G36*
X370839Y129539D02*
X370839Y129539D01*
X370839Y137161D01*
X376720Y137161D01*
X378299Y136911D01*
X379820Y136416D01*
X381245Y135690D01*
X382539Y134750D01*
X383670Y133619D01*
X384610Y132325D01*
X385336Y130900D01*
X385779Y129539D01*
X370839Y129539D01*
G37*
%LPD*%
%LPC*%
G36*
X370839Y180339D02*
X370839Y180339D01*
X370839Y187961D01*
X376720Y187961D01*
X378299Y187711D01*
X379820Y187216D01*
X381245Y186490D01*
X382539Y185550D01*
X383670Y184419D01*
X384610Y183125D01*
X385336Y181700D01*
X385779Y180339D01*
X370839Y180339D01*
G37*
%LPD*%
%LPC*%
G36*
X350821Y180339D02*
X350821Y180339D01*
X351264Y181700D01*
X351990Y183125D01*
X352930Y184419D01*
X354061Y185550D01*
X355355Y186490D01*
X356780Y187216D01*
X358301Y187711D01*
X359880Y187961D01*
X365761Y187961D01*
X365761Y180339D01*
X350821Y180339D01*
G37*
%LPD*%
%LPC*%
G36*
X350821Y129539D02*
X350821Y129539D01*
X351264Y130900D01*
X351990Y132325D01*
X352930Y133619D01*
X354061Y134750D01*
X355355Y135690D01*
X356780Y136416D01*
X358301Y136911D01*
X359880Y137161D01*
X365761Y137161D01*
X365761Y129539D01*
X350821Y129539D01*
G37*
%LPD*%
%LPC*%
G36*
X370839Y167639D02*
X370839Y167639D01*
X370839Y175261D01*
X385779Y175261D01*
X385336Y173900D01*
X384610Y172475D01*
X383670Y171181D01*
X382539Y170050D01*
X381245Y169110D01*
X379820Y168384D01*
X378299Y167889D01*
X376720Y167639D01*
X370839Y167639D01*
G37*
%LPD*%
%LPC*%
G36*
X370839Y116839D02*
X370839Y116839D01*
X370839Y124461D01*
X385779Y124461D01*
X385336Y123100D01*
X384610Y121675D01*
X383670Y120381D01*
X382539Y119250D01*
X381245Y118310D01*
X379820Y117584D01*
X378299Y117089D01*
X376720Y116839D01*
X370839Y116839D01*
G37*
%LPD*%
%LPC*%
G36*
X359880Y167639D02*
X359880Y167639D01*
X358301Y167889D01*
X356780Y168384D01*
X355355Y169110D01*
X354061Y170050D01*
X352930Y171181D01*
X351990Y172475D01*
X351264Y173900D01*
X350821Y175261D01*
X365761Y175261D01*
X365761Y167639D01*
X359880Y167639D01*
G37*
%LPD*%
%LPC*%
G36*
X359880Y116839D02*
X359880Y116839D01*
X358301Y117089D01*
X356780Y117584D01*
X355355Y118310D01*
X354061Y119250D01*
X352930Y120381D01*
X351990Y121675D01*
X351264Y123100D01*
X350821Y124461D01*
X365761Y124461D01*
X365761Y116839D01*
X359880Y116839D01*
G37*
%LPD*%
%LPC*%
G36*
X78739Y523239D02*
X78739Y523239D01*
X78739Y532385D01*
X78996Y532345D01*
X80783Y531764D01*
X82457Y530911D01*
X83978Y529806D01*
X85306Y528478D01*
X86411Y526957D01*
X87264Y525283D01*
X87845Y523496D01*
X87885Y523239D01*
X78739Y523239D01*
G37*
%LPD*%
%LPC*%
G36*
X853439Y142239D02*
X853439Y142239D01*
X853439Y149861D01*
X855109Y149861D01*
X861061Y143909D01*
X861061Y142239D01*
X853439Y142239D01*
G37*
%LPD*%
%LPC*%
G36*
X828039Y193039D02*
X828039Y193039D01*
X828039Y200661D01*
X829709Y200661D01*
X835661Y194709D01*
X835661Y193039D01*
X828039Y193039D01*
G37*
%LPD*%
%LPC*%
G36*
X828039Y269239D02*
X828039Y269239D01*
X828039Y276861D01*
X829709Y276861D01*
X835661Y270909D01*
X835661Y269239D01*
X828039Y269239D01*
G37*
%LPD*%
%LPC*%
G36*
X828039Y91439D02*
X828039Y91439D01*
X828039Y99061D01*
X829709Y99061D01*
X835661Y93109D01*
X835661Y91439D01*
X828039Y91439D01*
G37*
%LPD*%
%LPC*%
G36*
X853439Y345439D02*
X853439Y345439D01*
X853439Y353061D01*
X855109Y353061D01*
X861061Y347109D01*
X861061Y345439D01*
X853439Y345439D01*
G37*
%LPD*%
%LPC*%
G36*
X853439Y129539D02*
X853439Y129539D01*
X853439Y137161D01*
X861061Y137161D01*
X861061Y135491D01*
X855109Y129539D01*
X853439Y129539D01*
G37*
%LPD*%
%LPC*%
G36*
X815339Y91439D02*
X815339Y91439D01*
X815339Y93109D01*
X821291Y99061D01*
X822961Y99061D01*
X822961Y91439D01*
X815339Y91439D01*
G37*
%LPD*%
%LPC*%
G36*
X828039Y78739D02*
X828039Y78739D01*
X828039Y86361D01*
X835661Y86361D01*
X835661Y84691D01*
X829709Y78739D01*
X828039Y78739D01*
G37*
%LPD*%
%LPC*%
G36*
X828039Y180339D02*
X828039Y180339D01*
X828039Y187961D01*
X835661Y187961D01*
X835661Y186291D01*
X829709Y180339D01*
X828039Y180339D01*
G37*
%LPD*%
%LPC*%
G36*
X840739Y142239D02*
X840739Y142239D01*
X840739Y143909D01*
X846691Y149861D01*
X848361Y149861D01*
X848361Y142239D01*
X840739Y142239D01*
G37*
%LPD*%
%LPC*%
G36*
X815339Y193039D02*
X815339Y193039D01*
X815339Y194709D01*
X821291Y200661D01*
X822961Y200661D01*
X822961Y193039D01*
X815339Y193039D01*
G37*
%LPD*%
%LPC*%
G36*
X828039Y256539D02*
X828039Y256539D01*
X828039Y264161D01*
X835661Y264161D01*
X835661Y262491D01*
X829709Y256539D01*
X828039Y256539D01*
G37*
%LPD*%
%LPC*%
G36*
X815339Y269239D02*
X815339Y269239D01*
X815339Y270909D01*
X821291Y276861D01*
X822961Y276861D01*
X822961Y269239D01*
X815339Y269239D01*
G37*
%LPD*%
%LPC*%
G36*
X853439Y332739D02*
X853439Y332739D01*
X853439Y340361D01*
X861061Y340361D01*
X861061Y338691D01*
X855109Y332739D01*
X853439Y332739D01*
G37*
%LPD*%
%LPC*%
G36*
X840739Y345439D02*
X840739Y345439D01*
X840739Y347109D01*
X846691Y353061D01*
X848361Y353061D01*
X848361Y345439D01*
X840739Y345439D01*
G37*
%LPD*%
%LPC*%
G36*
X821291Y180339D02*
X821291Y180339D01*
X815339Y186291D01*
X815339Y187961D01*
X822961Y187961D01*
X822961Y180339D01*
X821291Y180339D01*
G37*
%LPD*%
%LPC*%
G36*
X821291Y256539D02*
X821291Y256539D01*
X815339Y262491D01*
X815339Y264161D01*
X822961Y264161D01*
X822961Y256539D01*
X821291Y256539D01*
G37*
%LPD*%
%LPC*%
G36*
X846691Y129539D02*
X846691Y129539D01*
X840739Y135491D01*
X840739Y137161D01*
X848361Y137161D01*
X848361Y129539D01*
X846691Y129539D01*
G37*
%LPD*%
%LPC*%
G36*
X846691Y332739D02*
X846691Y332739D01*
X840739Y338691D01*
X840739Y340361D01*
X848361Y340361D01*
X848361Y332739D01*
X846691Y332739D01*
G37*
%LPD*%
%LPC*%
G36*
X821291Y78739D02*
X821291Y78739D01*
X815339Y84691D01*
X815339Y86361D01*
X822961Y86361D01*
X822961Y78739D01*
X821291Y78739D01*
G37*
%LPD*%
D10*
X76200Y38100D03*
X76200Y63500D03*
X76200Y88900D03*
X76200Y114300D03*
X76200Y139700D03*
X76200Y165100D03*
X76200Y190500D03*
X76200Y215900D03*
X76200Y241300D03*
X76200Y266700D03*
X76200Y292100D03*
X76200Y317500D03*
X76200Y342900D03*
X50800Y342900D03*
X50800Y317500D03*
X50800Y292100D03*
X50800Y266700D03*
X50800Y241300D03*
X50800Y215900D03*
X50800Y190500D03*
X50800Y165100D03*
X50800Y139700D03*
X50800Y114300D03*
X50800Y88900D03*
X50800Y63500D03*
X50800Y38100D03*
X76200Y368300D03*
X50800Y368300D03*
X76200Y393700D03*
X50800Y393700D03*
X76200Y419100D03*
X50800Y419100D03*
X76200Y444500D03*
X50800Y444500D03*
X76200Y469900D03*
X50800Y469900D03*
X76200Y495300D03*
X50800Y495300D03*
X76200Y520700D03*
X50800Y520700D03*
D11*
X850900Y38100D03*
X825500Y38100D03*
X850900Y63500D03*
X825500Y63500D03*
X850900Y88900D03*
X825500Y88900D03*
X850900Y114300D03*
X825500Y114300D03*
X850900Y139700D03*
X825500Y139700D03*
X850900Y165100D03*
X825500Y165100D03*
X850900Y190500D03*
X825500Y190500D03*
X850900Y215900D03*
X825500Y215900D03*
X850900Y241300D03*
X825500Y241300D03*
X850900Y266700D03*
X825500Y266700D03*
X850900Y292100D03*
X825500Y292100D03*
X850900Y317500D03*
X825500Y317500D03*
X850900Y342900D03*
X825500Y342900D03*
D12*
X210820Y215900D02*
X195580Y215900D01*
X195580Y190500D02*
X210820Y190500D01*
X210820Y165100D02*
X195580Y165100D01*
X360680Y127000D02*
X375920Y127000D01*
X375920Y152400D02*
X360680Y152400D01*
X360680Y177800D02*
X375920Y177800D01*
D13*
X708660Y273050D03*
X596900Y203200D03*
X520700Y457200D03*
M02*
